<svg xmlns="http://www.w3.org/2000/svg" xmlns:xlink="http://www.w3.org/1999/xlink" width="432.629" height="435.532" viewBox="0 0 432.629 435.532">
  <defs>
    <clipPath id="clip-path">
      <path id="Path_4012" data-name="Path 4012" d="M223.888,232.3s-30.776-3.651-51.025,12.145S135.2,326.241,135.6,357.856s12.157,47.386,41.715,60.334,84.624,8.1,115.4-1.618,40.9-43.712,40.5-61.953-20.651-39.282-27.539-43.712-26.322-13.763-36.033-28.354S245.744,236.348,223.888,232.3Z" transform="translate(-135.594 -231.931)" fill="#478bca" stroke="#263238" stroke-linecap="round" stroke-linejoin="round" stroke-width="1"/>
    </clipPath>
    <clipPath id="clip-path-2">
      <path id="Path_4020" data-name="Path 4020" d="M211.462,235.123s-11.023,3.544-12.606,6.3-.39,22.057-.39,24.42,1.382-1.382,2.564-4.135,5.316-6.9,6.687-6.5,2.174,1.961,2.174,4.525,3.143,6.108,5.907,8.069,5.316,3.946,5.316,3.946,5.706-8.27,7.088-10.444,1.181-6.687,1.37-8.27,3.745,4.336,4.537,2.764-1.772-2.954-4.537-7.289-1.961-8.861-6.1-12.015S214.616,234.32,211.462,235.123Z" transform="translate(-198.035 -234.321)" fill="#fff" stroke="#263238" stroke-linecap="round" stroke-linejoin="round" stroke-width="1"/>
    </clipPath>
    <clipPath id="clip-path-3">
      <path id="Path_4025" data-name="Path 4025" d="M192.707,304.215s-6.793-9.747-15.063-10.633-18.312,5.907-18.607,8.27-2.363,15.063-.886,16.835,7.088,3.249,18.016-.3S191.526,310.417,192.707,304.215Z" transform="translate(-157.624 -293.503)" fill="#fff" stroke="#263238" stroke-linecap="round" stroke-linejoin="round" stroke-width="1"/>
    </clipPath>
    <clipPath id="clip-path-4">
      <path id="Path_4030" data-name="Path 4030" d="M169.59,307.813s-11.082,4.395-11.519,13c-.248,4.726,7.679,6.793,15.949,6.793s20.084-10.337,27.763-14.768,25.4-14.768,27.468-15.654,9.156,1.477,12.109,2.363a39.94,39.94,0,0,0,8.565.886s4.135,6.5,6.2,6.5-4.43-9.747-5.316-11.814-15.358-6.793-17.13-6.793-43.121,10.337-49.324,12.7S169.59,307.813,169.59,307.813Z" transform="translate(-158.065 -288.32)" fill="#fff" stroke="#263238" stroke-linecap="round" stroke-linejoin="round" stroke-width="1"/>
    </clipPath>
    <clipPath id="clip-path-5">
      <path id="Path_4036" data-name="Path 4036" d="M238.178,292.07,206.54,314.446l72.361-2.067,24.254-20.013Z" transform="translate(-206.54 -292.07)" fill="#fff" stroke="#263238" stroke-linecap="round" stroke-linejoin="round" stroke-width="1"/>
    </clipPath>
    <clipPath id="clip-path-6">
      <path id="Path_4041" data-name="Path 4041" d="M253.57,316.24s25.991-22.742,51.687-30.421,31.012-6.5,30.421,5.021-13,71.77-21.265,87.129S295.805,421.385,296.1,426.7s10.337,20.97,19.2,26.582,7.974,12.4,2.363,13.586-12.109,3.249-31.307-9.156-27.172-30.126-25.991-34.556,13.586-10.337,18.607-19.2,13.291-41.94,13.882-57a89.5,89.5,0,0,1,5.907-27.763s-32.489,5.907-41.94,11.814Z" transform="translate(-253.57 -280.942)" fill="#fff" stroke="#263238" stroke-linecap="round" stroke-linejoin="round" stroke-width="1"/>
    </clipPath>
    <clipPath id="clip-path-7">
      <path id="Path_4048" data-name="Path 4048" d="M278.97,403.96c-.378.662-.8,1.3-1.252,1.938a30.351,30.351,0,0,1,16.611,6.923,52.19,52.19,0,0,1,4.04,3.91c5.659-7.608,12.027-31.6,19.21-41.479,18.56-25.507,17.508-72.893,18.1-84.411s-4.726-12.7-30.421-5.021S253.57,316.24,253.57,316.24l3.249,14.768c9.451-5.907,41.94-11.814,41.94-11.814a89.5,89.5,0,0,0-5.907,27.763C292.261,362.02,283.991,395.1,278.97,403.96Z" transform="translate(-253.57 -280.942)" fill="#263238" stroke="#263238" stroke-linecap="round" stroke-linejoin="round" stroke-width="1"/>
    </clipPath>
    <clipPath id="clip-path-8">
      <path id="Path_4054" data-name="Path 4054" d="M190.093,318.206s-9.451,5.316-12.7,11.223,10.727,15.748,25.495,15.157,41.845-16.634,41.845-16.634.3,25.991,5.316,35.442,28.058,32.489,37.214,38.4,39.872,28.058,44.6,31.6,13.586,10.042,15.654,10.337,23.628-25.991,28.649-34.852,9.451-27.468,7.679-31.6-5.316-.591-8.861,2.363S338.95,404.154,336,405.63a32.416,32.416,0,0,1-5.021,2.067s-26.582-25.4-40.759-44.893-15.358-44.6-20.675-54.049-13-13.586-24.514-12.4S209.586,303.734,190.093,318.206Z" transform="translate(-176.918 -296.153)" fill="#fff" stroke="#263238" stroke-linecap="round" stroke-linejoin="round" stroke-width="1"/>
    </clipPath>
    <clipPath id="clip-path-9">
      <path id="Path_4059" data-name="Path 4059" d="M329.706,405.961c-6.25-6.1-29.677-37.533-38.927-55.609-13.551-26.487-15.016-35.513-20.332-44.964s-13.338-10.184-24.81-9-32.134,3.32-57.416,17.662c0,0-10.633,5.765-13.87,11.672s8.589,20.781,29.145,18.9c14.72-1.347,41.845-16.634,41.845-16.634s.3,25.991,5.316,35.442,28.058,32.489,37.214,38.4c5.8,3.745,20.273,14.023,31.3,21.939C321.885,413.877,326.765,408.466,329.706,405.961Z" transform="translate(-173.821 -295.957)" fill="#263238" stroke="#263238" stroke-linecap="round" stroke-linejoin="round" stroke-width="1"/>
    </clipPath>
    <clipPath id="clip-path-10">
      <path id="Path_4065" data-name="Path 4065" d="M350.74,396.709c5.021-8.861,9.451-27.468,7.679-31.6-1.028-2.363-2.646-2.209-4.525-1.051,1.24,5.517,0,16.162-6.108,27.633-5.446,10.231-22.269,28.354-30.717,37.12a19.827,19.827,0,0,0,5.045,2.753C324.158,431.856,345.719,405.57,350.74,396.709Z" transform="translate(-317.07 -363.239)" fill="#fff" stroke="#263238" stroke-linecap="round" stroke-linejoin="round" stroke-width="1"/>
    </clipPath>
    <clipPath id="clip-path-11">
      <path id="Path_4071" data-name="Path 4071" d="M314.273,431.95a38.6,38.6,0,0,1-7.868-7.088c-6.1-2.6-14.236-5.907-21.372-10.349-7.679-4.726-5.907-7.679-10.337-12.109-3.4-3.4-10.089-3.84-13-3.863a8.163,8.163,0,0,0-2.363,3.272c-1.181,4.43,6.793,22.151,25.991,34.556s25.7,10.337,31.307,9.156S323.133,437.562,314.273,431.95Z" transform="translate(-259.224 -398.54)" fill="#fff" stroke="#263238" stroke-linecap="round" stroke-linejoin="round" stroke-width="1"/>
    </clipPath>
    <clipPath id="clip-path-12">
      <path id="Path_4075" data-name="Path 4075" d="M315.746,433.652c-7.679-4.43-23.333-7.384-33.375-14.177s-7.384-12.7-14.768-17.426a7.5,7.5,0,0,0-8.27-.473c-1.028,4.607,6.97,22.128,25.991,34.438s25.7,10.337,31.307,9.156c3.733-.792,5.352-4.052,3.426-7.8A16.115,16.115,0,0,0,315.746,433.652Z" transform="translate(-259.246 -400.556)" fill="#263238" stroke="#263238" stroke-linecap="round" stroke-linejoin="round" stroke-width="1"/>
    </clipPath>
    <clipPath id="clip-path-13">
      <path id="Path_4086" data-name="Path 4086" d="M206.72,222.055s1.382,14.921,1.961,19.635,1.89,18.253,3.249,22.73,8.766,12.263,9.451,10.467,4.371-13.976,2.906-21.265-1.914-13.515-1-15.358,4.182-3.91,4.182-3.91a118.643,118.643,0,0,1-11.093-6.462C211.15,224.418,207.452,220.483,206.72,222.055Z" transform="translate(-206.72 -221.699)" fill="#fff" stroke="#263238" stroke-linecap="round" stroke-linejoin="round" stroke-width="1"/>
    </clipPath>
    <clipPath id="clip-path-14">
      <path id="Path_4091" data-name="Path 4091" d="M207.256,229.411s8.506,7.088,15.027,9.688,16.54,2.434,17.969-.957-2.481-30.244-5.848-37.309-6.958-7.183-12.9-7.726-17.827,4.3-19.919,10.042.3,13.87,2.02,18.69A35.44,35.44,0,0,0,207.256,229.411Z" transform="translate(-200.769 -193.065)" fill="#fff" stroke="#263238" stroke-linecap="round" stroke-linejoin="round" stroke-width="1"/>
    </clipPath>
    <clipPath id="clip-path-15">
      <path id="Path_4108" data-name="Path 4108" d="M209.909,218.456s-3.816-5.505-7.833-3.3-.9,10.066,1.524,12.795,7.088-2.363,7.573-3.639" transform="translate(-200.145 -214.637)" fill="#fff" stroke="#263238" stroke-linecap="round" stroke-linejoin="round" stroke-width="1"/>
    </clipPath>
  </defs>
  <g id="Blogging-bro" transform="translate(-66.184 -70.72)">
    <g id="freepik--background-simple--inject-289" transform="translate(66.184 120.275)">
      <path id="Path_4005" data-name="Path 4005" d="M472.914,373.074c8.837-72.125-33.954-168-78.327-207.573C314.5,94.026,247.962,107.848,196.217,133.45S137.064,244.5,101.338,283.169s-56.07,90.673-1.843,142.454,97.95,25.459,154.634,22.187,131.833,22.565,172.485.083C455.027,432.2,469.015,404.96,472.914,373.074Z" transform="translate(-66.184 -112.743)" fill="#478bca"/>
      <path id="Path_4006" data-name="Path 4006" d="M472.914,373.074c8.837-72.125-33.954-168-78.327-207.573C314.5,94.026,247.962,107.848,196.217,133.45S137.064,244.5,101.338,283.169s-56.07,90.673-1.843,142.454,97.95,25.459,154.634,22.187,131.833,22.565,172.485.083C455.027,432.2,469.015,404.96,472.914,373.074Z" transform="translate(-66.184 -112.743)" fill="#fff" opacity="0.7"/>
    </g>
    <g id="freepik--Background--inject-289" transform="translate(75.879 71.22)">
      <line id="Line_149" data-name="Line 149" y1="265.746" transform="translate(172.745 41.101)" fill="none" stroke="#263238" stroke-linecap="round" stroke-linejoin="round" stroke-width="1"/>
      <path id="Path_4007" data-name="Path 4007" d="M74.39,333.18H242.02l254.676,82.2" transform="translate(-74.39 -23.699)" fill="none" stroke="#263238" stroke-linecap="round" stroke-linejoin="round" stroke-width="1"/>
      <path id="Path_4008" data-name="Path 4008" d="M145.028,363.015H133.45V171.556h23.9L147.037,134.33H116.084L105.77,171.556h23.9V363.015H118.057a11.341,11.341,0,0,0-11.33,11.129s0,.059,0,.083h0v.094h0c.343,2.67,11.306,4.82,24.81,4.82s24.467-2.15,24.81-4.82h0A11.341,11.341,0,0,0,145.028,363.015Z" transform="translate(-68.697 -59.771)" fill="#263238"/>
      <path id="Path_4009" data-name="Path 4009" d="M269.59,99.148V324.584l169.733,27.928V71.22ZM434.916,163.7l-86.243,4.891V90.264l86.243-13.728Zm-86.243,13.125,86.243-3.958v78.753l-86.243-4.029Zm-6.994,70.435-69.242-3.225V180.323l69.183-3.166Zm0-155.887v77.642L272.437,172.9V102.385ZM272.437,251.455l69.183,3.981v76.921l-69.183-11.011Zm76.177,82.013v-77.63l86.243,4.962v86.4Z" transform="translate(-38.979 -71.22)" fill="#263238" stroke="#263238" stroke-linecap="round" stroke-linejoin="round" stroke-width="1"/>
    </g>
    <g id="freepik--Character--inject-289" transform="translate(95.289 195.803)">
      <ellipse id="Ellipse_65" data-name="Ellipse 65" cx="135.803" cy="42.306" rx="135.803" ry="42.306" transform="translate(16.859 209.885)" fill="#478bca"/>
      <ellipse id="Ellipse_66" data-name="Ellipse 66" cx="135.803" cy="42.306" rx="135.803" ry="42.306" transform="translate(16.859 209.885)" fill="#fff" opacity="0.5"/>
      <path id="Path_4010" data-name="Path 4010" d="M223.888,232.3s-30.776-3.651-51.025,12.145S135.2,326.241,135.6,357.856s12.157,47.386,41.715,60.334,84.624,8.1,115.4-1.618,40.9-43.712,40.5-61.953-20.651-39.282-27.539-43.712-26.322-13.763-36.033-28.354S245.744,236.348,223.888,232.3Z" transform="translate(-82.698 -166.649)" fill="#478bca"/>
      <g id="Group_932" data-name="Group 932" transform="translate(52.897 65.282)" clip-path="url(#clip-path)">
        <path id="Path_4011" data-name="Path 4011" d="M298.363,412.505c-11.637-1.571-25.436-4.726-35.879-11.07-22.057-13.385-27.562-38.6-35.442-48.048s-22.057-8.66-28.354-18.9,3.934-85.841-14.177-90.567a41.219,41.219,0,0,0-11.306-1.619c-.106.095-.236.165-.343.26-20.249,15.8-37.663,81.8-37.262,113.415s12.157,47.386,41.715,60.334,84.624,8.1,115.4-1.619A48.589,48.589,0,0,0,298.363,412.505Z" transform="translate(-135.594 -230.05)" opacity="0.13"/>
      </g>
      <path id="Path_4013" data-name="Path 4013" d="M223.888,232.3s-30.776-3.651-51.025,12.145S135.2,326.241,135.6,357.856s12.157,47.386,41.715,60.334,84.624,8.1,115.4-1.618,40.9-43.712,40.5-61.953-20.651-39.282-27.539-43.712-26.322-13.763-36.033-28.354S245.744,236.348,223.888,232.3Z" transform="translate(-82.698 -166.649)" fill="none" stroke="#263238" stroke-linecap="round" stroke-linejoin="round" stroke-width="1"/>
      <path id="Path_4014" data-name="Path 4014" d="M206.51,244.675s-20.084,3.84-23.628,7.384-18.312,59.07-18.312,59.07a21.974,21.974,0,0,1,12.4.591c5.907,2.363,6.5,8.565,7.088,11.519a105.705,105.705,0,0,1,.886,10.633s59.7-5.328,72.4-8.27,32.028-4.312,32.028-4.312S256.72,247.64,251.7,244.982s-25.991-2.954-28.944-2.363S206.51,244.675,206.51,244.675Z" transform="translate(-77.441 -164.756)" fill="#263238" stroke="#263238" stroke-linecap="round" stroke-linejoin="round" stroke-width="1"/>
      <line id="Line_150" data-name="Line 150" y1="41.054" x2="5.021" transform="translate(109.28 107.091)" fill="none" stroke="#fff" stroke-linecap="round" stroke-linejoin="round" stroke-width="1"/>
      <line id="Line_151" data-name="Line 151" y1="8.861" x2="6.793" transform="translate(113.12 109.158)" fill="none" stroke="#fff" stroke-linecap="round" stroke-linejoin="round" stroke-width="1"/>
      <path id="Path_4015" data-name="Path 4015" d="M203.82,282.022s19.2-6.2,31.9-6.2" transform="translate(-70.321 -158.687)" fill="none" stroke="#fff" stroke-linecap="round" stroke-linejoin="round" stroke-width="1"/>
      <path id="Path_4016" data-name="Path 4016" d="M219.358,266.74l-1.288,9.841s3.249,0,3.544,1.477a3.922,3.922,0,0,1-1.181,2.954s9.156,5.021,10.337,10.928" transform="translate(-67.736 -160.334)" fill="none" stroke="#fff" stroke-linecap="round" stroke-linejoin="round" stroke-width="1"/>
      <path id="Path_4017" data-name="Path 4017" d="M211.462,235.123s-11.023,3.544-12.606,6.3-.39,22.057-.39,24.42,1.382-1.382,2.564-4.135,5.316-6.9,6.687-6.5,2.174,1.961,2.174,4.525,3.143,6.108,5.907,8.069,5.316,3.946,5.316,3.946,5.706-8.27,7.088-10.444,1.181-6.687,1.37-8.27,3.745,4.336,4.537,2.764-1.772-2.954-4.537-7.289-1.961-8.861-6.1-12.015S214.616,234.32,211.462,235.123Z" transform="translate(-71.371 -166.215)" fill="#fff"/>
      <g id="Group_933" data-name="Group 933" transform="translate(126.664 68.105)" clip-path="url(#clip-path-2)">
        <path id="Path_4018" data-name="Path 4018" d="M198.855,241.285c-1.04,1.843-.874,11.034-.638,17.721,2.516-3.237,7.7-9.357,10.7-8.2,3.828,1.477,5.293,12.358,5.293,12.358L211.626,235h-.165S200.438,238.544,198.855,241.285Z" transform="translate(-198.034 -234.197)" fill="#478bca"/>
        <path id="Path_4019" data-name="Path 4019" d="M198.855,241.285c-1.04,1.843-.874,11.034-.638,17.721,2.516-3.237,7.7-9.357,10.7-8.2,3.828,1.477,5.293,12.358,5.293,12.358L211.626,235h-.165S200.438,238.544,198.855,241.285Z" transform="translate(-198.034 -234.197)" fill="#fff" opacity="0.5"/>
      </g>
      <path id="Path_4021" data-name="Path 4021" d="M211.462,235.123s-11.023,3.544-12.606,6.3-.39,22.057-.39,24.42,1.382-1.382,2.564-4.135,5.316-6.9,6.687-6.5,2.174,1.961,2.174,4.525,3.143,6.108,5.907,8.069,5.316,3.946,5.316,3.946,5.706-8.27,7.088-10.444,1.181-6.687,1.37-8.27,3.745,4.336,4.537,2.764-1.772-2.954-4.537-7.289-1.961-8.861-6.1-12.015S214.616,234.32,211.462,235.123Z" transform="translate(-71.371 -166.215)" fill="none" stroke="#263238" stroke-linecap="round" stroke-linejoin="round" stroke-width="1"/>
      <path id="Path_4022" data-name="Path 4022" d="M192.707,304.215s-6.793-9.747-15.063-10.633-18.312,5.907-18.607,8.27-2.363,15.063-.886,16.835,7.088,3.249,18.016-.3S191.526,310.417,192.707,304.215Z" transform="translate(-78.701 -155.479)" fill="#fff"/>
      <g id="Group_934" data-name="Group 934" transform="translate(78.923 138.024)" clip-path="url(#clip-path-3)">
        <path id="Path_4023" data-name="Path 4023" d="M165.074,318.333s-2.363-6.758-1.181-9.109,5.907-5.907,8.825-9.451-6.888,2-7.36,0c-.366-1.607,5.186-4.82,7.372-6.013-6.876,1.323-13.456,6.108-13.693,8.01-.3,2.363-2.363,15.063-.886,16.835.756.91,2.635,1.749,5.765,1.855C164.625,319.243,165.074,318.333,165.074,318.333Z" transform="translate(-157.624 -293.456)" fill="#478bca"/>
        <path id="Path_4024" data-name="Path 4024" d="M165.074,318.333s-2.363-6.758-1.181-9.109,5.907-5.907,8.825-9.451-6.888,2-7.36,0c-.366-1.607,5.186-4.82,7.372-6.013-6.876,1.323-13.456,6.108-13.693,8.01-.3,2.363-2.363,15.063-.886,16.835.756.91,2.635,1.749,5.765,1.855C164.625,319.243,165.074,318.333,165.074,318.333Z" transform="translate(-157.624 -293.456)" fill="#fff" opacity="0.5"/>
      </g>
      <path id="Path_4026" data-name="Path 4026" d="M192.707,304.215s-6.793-9.747-15.063-10.633-18.312,5.907-18.607,8.27-2.363,15.063-.886,16.835,7.088,3.249,18.016-.3S191.526,310.417,192.707,304.215Z" transform="translate(-78.701 -155.479)" fill="none" stroke="#263238" stroke-linecap="round" stroke-linejoin="round" stroke-width="1"/>
      <path id="Path_4027" data-name="Path 4027" d="M169.59,307.813s-11.082,4.395-11.519,13c-.248,4.726,7.679,6.793,15.949,6.793s20.084-10.337,27.763-14.768,25.4-14.768,27.468-15.654,9.156,1.477,12.109,2.363a39.94,39.94,0,0,0,8.565.886s4.135,6.5,6.2,6.5-4.43-9.747-5.316-11.814-15.358-6.793-17.13-6.793-43.121,10.337-49.324,12.7S169.59,307.813,169.59,307.813Z" transform="translate(-78.621 -156.419)" fill="#fff"/>
      <g id="Group_935" data-name="Group 935" transform="translate(79.444 131.901)" clip-path="url(#clip-path-4)">
        <path id="Path_4028" data-name="Path 4028" d="M192.757,306.585c16.882-8.447,40.924-18.265,40.924-18.265-1.772,0-43.121,10.337-49.324,12.7s-14.768,6.793-14.768,6.793-11.082,4.395-11.519,13c-.248,4.726,7.679,6.793,15.949,6.793s20.084-10.337,27.763-14.768l4.655-2.694C195.155,311.57,180.069,312.917,192.757,306.585Z" transform="translate(-158.065 -288.32)" fill="#478bca"/>
        <path id="Path_4029" data-name="Path 4029" d="M192.757,306.585c16.882-8.447,40.924-18.265,40.924-18.265-1.772,0-43.121,10.337-49.324,12.7s-14.768,6.793-14.768,6.793-11.082,4.395-11.519,13c-.248,4.726,7.679,6.793,15.949,6.793s20.084-10.337,27.763-14.768l4.655-2.694C195.155,311.57,180.069,312.917,192.757,306.585Z" transform="translate(-158.065 -288.32)" fill="#fff" opacity="0.5"/>
      </g>
      <path id="Path_4031" data-name="Path 4031" d="M169.59,307.813s-11.082,4.395-11.519,13c-.248,4.726,7.679,6.793,15.949,6.793s20.084-10.337,27.763-14.768,25.4-14.768,27.468-15.654,9.156,1.477,12.109,2.363a39.94,39.94,0,0,0,8.565.886s4.135,6.5,6.2,6.5-4.43-9.747-5.316-11.814-15.358-6.793-17.13-6.793-43.121,10.337-49.324,12.7S169.59,307.813,169.59,307.813Z" transform="translate(-78.621 -156.419)" fill="none" stroke="#263238" stroke-linecap="round" stroke-linejoin="round" stroke-width="1"/>
      <path id="Path_4032" data-name="Path 4032" d="M242.322,249.594l-9,50.623,64.977.3,9.664-48.012a2.989,2.989,0,0,0-2.835-3.544l-59.779-1.8a2.977,2.977,0,0,0-3.024,2.434Z" transform="translate(-64.97 -163.886)" fill="#fff" stroke="#263238" stroke-linecap="round" stroke-linejoin="round" stroke-width="1"/>
      <path id="Path_4033" data-name="Path 4033" d="M238.178,292.07,206.54,314.446l72.361-2.067,24.254-20.013Z" transform="translate(-69.828 -155.739)" fill="#fff"/>
      <g id="Group_936" data-name="Group 936" transform="translate(136.712 136.331)" clip-path="url(#clip-path-5)">
        <path id="Path_4034" data-name="Path 4034" d="M238.178,292.07,206.54,314.446l72.361-2.067,24.254-20.013Z" transform="translate(-206.54 -292.07)" fill="#478bca"/>
        <path id="Path_4035" data-name="Path 4035" d="M238.178,292.07,206.54,314.446l72.361-2.067,24.254-20.013Z" transform="translate(-206.54 -292.07)" fill="#fff" opacity="0.5"/>
      </g>
      <path id="Path_4037" data-name="Path 4037" d="M238.178,292.07,206.54,314.446l72.361-2.067,24.254-20.013Z" transform="translate(-69.828 -155.739)" fill="none" stroke="#263238" stroke-linecap="round" stroke-linejoin="round" stroke-width="1"/>
      <path id="Path_4038" data-name="Path 4038" d="M253.57,316.24s25.991-22.742,51.687-30.421,31.012-6.5,30.421,5.021-13,71.77-21.265,87.129S295.805,421.385,296.1,426.7s10.337,20.97,19.2,26.582,7.974,12.4,2.363,13.586-12.109,3.249-31.307-9.156-27.172-30.126-25.991-34.556,13.586-10.337,18.607-19.2,13.291-41.94,13.882-57a89.5,89.5,0,0,1,5.907-27.763s-32.489,5.907-41.94,11.814Z" transform="translate(-61.296 -157.758)" fill="#fff"/>
      <g id="Group_937" data-name="Group 937" transform="translate(192.274 123.184)" clip-path="url(#clip-path-6)">
        <path id="Path_4039" data-name="Path 4039" d="M253.57,316.24s25.991-22.742,51.687-30.421,31.012-6.5,30.421,5.021-13,71.77-21.265,87.129S295.805,421.385,296.1,426.7s10.337,20.97,19.2,26.582,7.974,12.4,2.363,13.586-12.109,3.249-31.307-9.156-27.172-30.126-25.991-34.556,13.586-10.337,18.607-19.2,13.291-41.94,13.882-57a89.5,89.5,0,0,1,5.907-27.763s-32.489,5.907-41.94,11.814Z" transform="translate(-253.57 -280.942)" fill="#478bca"/>
        <path id="Path_4040" data-name="Path 4040" d="M253.57,316.24s25.991-22.742,51.687-30.421,31.012-6.5,30.421,5.021-13,71.77-21.265,87.129S295.805,421.385,296.1,426.7s10.337,20.97,19.2,26.582,7.974,12.4,2.363,13.586-12.109,3.249-31.307-9.156-27.172-30.126-25.991-34.556,13.586-10.337,18.607-19.2,13.291-41.94,13.882-57a89.5,89.5,0,0,1,5.907-27.763s-32.489,5.907-41.94,11.814Z" transform="translate(-253.57 -280.942)" fill="#fff" opacity="0.5"/>
      </g>
      <path id="Path_4042" data-name="Path 4042" d="M253.57,316.24s25.991-22.742,51.687-30.421,31.012-6.5,30.421,5.021-13,71.77-21.265,87.129S295.805,421.385,296.1,426.7s10.337,20.97,19.2,26.582,7.974,12.4,2.363,13.586-12.109,3.249-31.307-9.156-27.172-30.126-25.991-34.556,13.586-10.337,18.607-19.2,13.291-41.94,13.882-57a89.5,89.5,0,0,1,5.907-27.763s-32.489,5.907-41.94,11.814Z" transform="translate(-61.296 -157.758)" fill="none" stroke="#263238" stroke-linecap="round" stroke-linejoin="round" stroke-width="1"/>
      <path id="Path_4043" data-name="Path 4043" d="M278.97,403.96c-.378.662-.8,1.3-1.252,1.938a30.351,30.351,0,0,1,16.611,6.923,52.19,52.19,0,0,1,4.04,3.91,258.328,258.328,0,0,1,16.044-38.762c8.27-15.358,20.675-75.61,21.265-87.129s-4.726-12.7-30.421-5.021S253.57,316.24,253.57,316.24l3.249,14.768c9.451-5.907,41.94-11.814,41.94-11.814a89.5,89.5,0,0,0-5.907,27.763C292.261,362.02,283.991,395.1,278.97,403.96Z" transform="translate(-61.296 -157.758)" fill="#fff" stroke="#263238" stroke-linecap="round" stroke-linejoin="round" stroke-width="1"/>
      <path id="Path_4044" data-name="Path 4044" d="M278.97,403.96c-.378.662-.8,1.3-1.252,1.938a30.351,30.351,0,0,1,16.611,6.923,52.19,52.19,0,0,1,4.04,3.91c5.659-7.608,12.027-31.6,19.21-41.479,18.56-25.507,17.508-72.893,18.1-84.411s-4.726-12.7-30.421-5.021S253.57,316.24,253.57,316.24l3.249,14.768c9.451-5.907,41.94-11.814,41.94-11.814a89.5,89.5,0,0,0-5.907,27.763C292.261,362.02,283.991,395.1,278.97,403.96Z" transform="translate(-61.296 -157.758)" fill="#263238"/>
      <g id="Group_938" data-name="Group 938" transform="translate(192.274 123.184)" clip-path="url(#clip-path-7)">
        <path id="Path_4045" data-name="Path 4045" d="M278.97,403.96c-.378.662-.8,1.3-1.252,1.938a30.351,30.351,0,0,1,16.611,6.923,52.19,52.19,0,0,1,4.04,3.91c5.659-7.608,12.027-31.6,19.21-41.479,18.56-25.507,17.508-72.893,18.1-84.411s-4.726-12.7-30.421-5.021S253.57,316.24,253.57,316.24l3.249,14.768c9.451-5.907,41.94-11.814,41.94-11.814a89.5,89.5,0,0,0-5.907,27.763C292.261,362.02,283.991,395.1,278.97,403.96Z" transform="translate(-253.57 -280.942)" fill="#fff" opacity="0.53"/>
        <path id="Path_4046" data-name="Path 4046" d="M323.19,288.09c-.461-4.194-46.146,15.146-65.414,23.486-2.67,2.126-4.206,3.473-4.206,3.473l3.249,14.768C266.27,323.91,298.759,318,298.759,318a89.5,89.5,0,0,0-5.907,27.763c-.591,15.063-8.861,48.142-13.882,57-.378.662-.8,1.3-1.252,1.938a33.458,33.458,0,0,1,9.451,2.445c7.077-15.1,14.7-32.666,18.3-46.406C311.967,335.937,323.781,293.407,323.19,288.09Z" transform="translate(-253.57 -279.751)" opacity="0.14"/>
        <path id="Path_4047" data-name="Path 4047" d="M291.82,317.22s8.861-18.016,16.54-25.4" transform="translate(-246.631 -278.968)" fill="none" stroke="#263238" stroke-linecap="round" stroke-linejoin="round" stroke-width="1"/>
      </g>
      <path id="Path_4049" data-name="Path 4049" d="M278.97,403.96c-.378.662-.8,1.3-1.252,1.938a30.351,30.351,0,0,1,16.611,6.923,52.19,52.19,0,0,1,4.04,3.91c5.659-7.608,12.027-31.6,19.21-41.479,18.56-25.507,17.508-72.893,18.1-84.411s-4.726-12.7-30.421-5.021S253.57,316.24,253.57,316.24l3.249,14.768c9.451-5.907,41.94-11.814,41.94-11.814a89.5,89.5,0,0,0-5.907,27.763C292.261,362.02,283.991,395.1,278.97,403.96Z" transform="translate(-61.296 -157.758)" fill="none" stroke="#263238" stroke-linecap="round" stroke-linejoin="round" stroke-width="1"/>
      <path id="Path_4050" data-name="Path 4050" d="M220.627,333.392a101.6,101.6,0,0,0,27.94-5.257c13.362-4.867-10.94-13.775-20.249-8.908a13.834,13.834,0,0,0-7.691,14.165Z" transform="translate(-67.292 -151.069)" fill="#263238" stroke="#263238" stroke-linecap="round" stroke-linejoin="round" stroke-width="1"/>
      <path id="Path_4051" data-name="Path 4051" d="M190.093,318.206s-9.451,5.316-12.7,11.223,10.727,15.748,25.495,15.157,41.845-16.634,41.845-16.634.3,25.991,5.316,35.442,28.058,32.489,37.214,38.4,39.872,28.058,44.6,31.6,13.586,10.042,15.654,10.337,23.628-25.991,28.649-34.852,9.451-27.468,7.679-31.6-5.316-.591-8.861,2.363S338.95,404.154,336,405.63a32.416,32.416,0,0,1-5.021,2.067s-26.582-25.4-40.759-44.893-15.358-44.6-20.675-54.049-13-13.586-24.514-12.4S209.586,303.734,190.093,318.206Z" transform="translate(-75.201 -154.998)" fill="#fff"/>
      <g id="Group_939" data-name="Group 939" transform="translate(101.717 141.155)" clip-path="url(#clip-path-8)">
        <path id="Path_4052" data-name="Path 4052" d="M293.85,403.078c7.892,5.647,14.756,10.633,16.8,12.168,4.726,3.544,13.586,10.042,15.654,10.337.732.106,3.922-3.143,7.951-7.762L300.43,396.06Z" transform="translate(-155.706 -278.03)" fill="#478bca"/>
        <path id="Path_4053" data-name="Path 4053" d="M293.85,403.078c7.892,5.647,14.756,10.633,16.8,12.168,4.726,3.544,13.586,10.042,15.654,10.337.732.106,3.922-3.143,7.951-7.762L300.43,396.06Z" transform="translate(-155.706 -278.03)" fill="#fff" opacity="0.5"/>
      </g>
      <path id="Path_4055" data-name="Path 4055" d="M190.093,318.206s-9.451,5.316-12.7,11.223,10.727,15.748,25.495,15.157,41.845-16.634,41.845-16.634.3,25.991,5.316,35.442,28.058,32.489,37.214,38.4,39.872,28.058,44.6,31.6,13.586,10.042,15.654,10.337,23.628-25.991,28.649-34.852,9.451-27.468,7.679-31.6-5.316-.591-8.861,2.363S338.95,404.154,336,405.63a32.416,32.416,0,0,1-5.021,2.067s-26.582-25.4-40.759-44.893-15.358-44.6-20.675-54.049-13-13.586-24.514-12.4S209.586,303.734,190.093,318.206Z" transform="translate(-75.201 -154.998)" fill="none" stroke="#263238" stroke-linecap="round" stroke-linejoin="round" stroke-width="1"/>
      <path id="Path_4056" data-name="Path 4056" d="M329.706,405.961c-6.25-6.1-29.677-37.533-38.927-55.609-13.551-26.487-15.016-35.513-20.332-44.964s-13.338-10.184-24.81-9-32.134,3.32-57.416,17.662c0,0-10.633,5.765-13.87,11.672s8.589,20.781,29.145,18.9c14.72-1.347,41.845-16.634,41.845-16.634s.3,25.991,5.316,35.442,28.058,32.489,37.214,38.4c5.8,3.745,20.273,14.023,31.3,21.939C321.885,413.877,326.765,408.466,329.706,405.961Z" transform="translate(-75.763 -155.034)" fill="#263238"/>
      <g id="Group_940" data-name="Group 940" transform="translate(98.058 140.922)" clip-path="url(#clip-path-9)">
        <path id="Path_4057" data-name="Path 4057" d="M329.706,405.961c-6.25-6.1-29.677-37.533-38.927-55.609-13.551-26.487-15.016-35.513-20.332-44.964s-13.338-10.184-24.81-9-32.134,3.32-57.416,17.662c0,0-10.633,5.765-13.87,11.672s8.589,20.781,29.145,18.9c14.72-1.347,41.845-16.634,41.845-16.634s.3,25.991,5.316,35.442,28.058,32.489,37.214,38.4c5.8,3.745,20.273,14.023,31.3,21.939C321.885,413.877,326.765,408.466,329.706,405.961Z" transform="translate(-173.821 -295.957)" fill="#fff" opacity="0.53"/>
        <path id="Path_4058" data-name="Path 4058" d="M270.274,363.015c-8.861-22.447-3.544-67.34-28.354-61.433-18.076,4.3-51.214,19.588-67.86,27.562,1.973,6.781,12.842,16.067,29.346,14.555,14.72-1.347,41.845-16.634,41.845-16.634s.3,25.991,5.316,35.442S278.626,395,287.782,400.9c5.8,3.745,20.273,14.023,31.3,21.939a42.223,42.223,0,0,1,4.123-9.888C301.2,396.685,275.224,375.549,270.274,363.015Z" transform="translate(-173.778 -295.032)" opacity="0.14"/>
        <line id="Line_152" data-name="Line 152" x1="0.886" y1="15.358" transform="translate(70.587 16.674)" fill="none" stroke="#263238" stroke-linecap="round" stroke-linejoin="round" stroke-width="1"/>
      </g>
      <path id="Path_4060" data-name="Path 4060" d="M329.706,405.961c-6.25-6.1-29.677-37.533-38.927-55.609-13.551-26.487-15.016-35.513-20.332-44.964s-13.338-10.184-24.81-9-32.134,3.32-57.416,17.662c0,0-10.633,5.765-13.87,11.672s8.589,20.781,29.145,18.9c14.72-1.347,41.845-16.634,41.845-16.634s.3,25.991,5.316,35.442,28.058,32.489,37.214,38.4c5.8,3.745,20.273,14.023,31.3,21.939C321.885,413.877,326.765,408.466,329.706,405.961Z" transform="translate(-75.763 -155.034)" fill="none" stroke="#263238" stroke-linecap="round" stroke-linejoin="round" stroke-width="1"/>
      <path id="Path_4061" data-name="Path 4061" d="M308.362,421.226c4.726,3.544,13.586,10.042,15.654,10.337s23.628-25.991,28.649-34.852,9.451-27.468,7.679-31.6-5.316-.591-8.861,2.363-36.033,24.514-38.986,25.991c-.78.39-1.489.709-2.115.981-.851,1.619-1.89,4.123-1.181,5.813,1.181,2.658,6.2,6.2,6.2,6.2l-8.943,13.4Z" transform="translate(-51.702 -142.831)" fill="#263238" stroke="#263238" stroke-linecap="round" stroke-linejoin="round" stroke-width="1"/>
      <path id="Path_4062" data-name="Path 4062" d="M350.74,396.709c5.021-8.861,9.451-27.468,7.679-31.6-1.028-2.363-2.646-2.209-4.525-1.051,1.24,5.517,0,16.162-6.108,27.633-5.446,10.231-22.269,28.354-30.717,37.12a19.827,19.827,0,0,0,5.045,2.753C324.158,431.856,345.719,405.57,350.74,396.709Z" transform="translate(-49.777 -142.829)" fill="#fff"/>
      <g id="Group_941" data-name="Group 941" transform="translate(267.293 220.41)" clip-path="url(#clip-path-10)">
        <path id="Path_4063" data-name="Path 4063" d="M322.4,422.689l.26-.13.071-.059a2.529,2.529,0,0,0,.4-.284l.142-.118.343-.284.189-.177.461-.425.284-.272.39-.378.331-.331.331-.331.839-.886.142-.142.52-.567.213-.224c.614-.673,1.276-1.406,1.961-2.186v-.059l.732-.827h0l-5.163-3.32c-2.93,3.19-5.659,6.072-7.833,8.329h0l.792.52.118.071.732.461h0l1.181.673.331.189.331.177.378.189.248.118a3.058,3.058,0,0,0,.366.154l.177.071a1.8,1.8,0,0,0,.425.118.448.448,0,0,0,.224,0Z" transform="translate(-317.081 -354.45)" fill="#478bca"/>
        <path id="Path_4064" data-name="Path 4064" d="M322.4,422.689l.26-.13.071-.059a2.529,2.529,0,0,0,.4-.284l.142-.118.343-.284.189-.177.461-.425.284-.272.39-.378.331-.331.331-.331.839-.886.142-.142.52-.567.213-.224c.614-.673,1.276-1.406,1.961-2.186v-.059l.732-.827h0l-5.163-3.32c-2.93,3.19-5.659,6.072-7.833,8.329h0l.792.52.118.071.732.461h0l1.181.673.331.189.331.177.378.189.248.118a3.058,3.058,0,0,0,.366.154l.177.071a1.8,1.8,0,0,0,.425.118.448.448,0,0,0,.224,0Z" transform="translate(-317.081 -354.45)" fill="#fff" opacity="0.5"/>
      </g>
      <path id="Path_4066" data-name="Path 4066" d="M350.74,396.709c5.021-8.861,9.451-27.468,7.679-31.6-1.028-2.363-2.646-2.209-4.525-1.051,1.24,5.517,0,16.162-6.108,27.633-5.446,10.231-22.269,28.354-30.717,37.12a19.827,19.827,0,0,0,5.045,2.753C324.158,431.856,345.719,405.57,350.74,396.709Z" transform="translate(-49.777 -142.829)" fill="none" stroke="#263238" stroke-linecap="round" stroke-linejoin="round" stroke-width="1"/>
      <path id="Path_4067" data-name="Path 4067" d="M314.278,432.8c-8.861-5.612-18.9-21.265-19.2-26.582a8.392,8.392,0,0,1,.142-1.737,8.447,8.447,0,0,0-4.867,1.737,112.91,112.91,0,0,0-11.519-9.156A24.125,24.125,0,0,0,268.2,393.88c-4.289,3.544-8.27,6.38-8.9,8.79-1.181,4.43,6.793,22.151,25.991,34.556s25.7,10.337,31.307,9.156S323.139,438.407,314.278,432.8Z" transform="translate(-60.276 -137.27)" fill="#263238" stroke="#263238" stroke-linecap="round" stroke-linejoin="round" stroke-width="1"/>
      <path id="Path_4068" data-name="Path 4068" d="M314.273,431.95a38.6,38.6,0,0,1-7.868-7.088c-6.1-2.6-14.236-5.907-21.372-10.349-7.679-4.726-5.907-7.679-10.337-12.109-3.4-3.4-10.089-3.84-13-3.863a8.163,8.163,0,0,0-2.363,3.272c-1.181,4.43,6.793,22.151,25.991,34.556s25.7,10.337,31.307,9.156S323.133,437.562,314.273,431.95Z" transform="translate(-60.271 -136.425)" fill="#fff"/>
      <g id="Group_942" data-name="Group 942" transform="translate(198.953 262.115)" clip-path="url(#clip-path-11)">
        <path id="Path_4069" data-name="Path 4069" d="M314.273,431.95a38.6,38.6,0,0,1-7.868-7.088c-6.1-2.6-14.236-5.907-21.372-10.349-7.679-4.726-5.907-7.679-10.337-12.109-3.4-3.4-10.089-3.84-13-3.863a8.163,8.163,0,0,0-2.363,3.272c-1.181,4.43,6.793,22.151,25.991,34.556s25.7,10.337,31.307,9.156S323.133,437.562,314.273,431.95Z" transform="translate(-259.224 -398.54)" fill="#478bca"/>
        <path id="Path_4070" data-name="Path 4070" d="M314.273,431.95a38.6,38.6,0,0,1-7.868-7.088c-6.1-2.6-14.236-5.907-21.372-10.349-7.679-4.726-5.907-7.679-10.337-12.109-3.4-3.4-10.089-3.84-13-3.863a8.163,8.163,0,0,0-2.363,3.272c-1.181,4.43,6.793,22.151,25.991,34.556s25.7,10.337,31.307,9.156S323.133,437.562,314.273,431.95Z" transform="translate(-259.224 -398.54)" fill="#fff" opacity="0.5"/>
      </g>
      <path id="Path_4072" data-name="Path 4072" d="M314.273,431.95a38.6,38.6,0,0,1-7.868-7.088c-6.1-2.6-14.236-5.907-21.372-10.349-7.679-4.726-5.907-7.679-10.337-12.109-3.4-3.4-10.089-3.84-13-3.863a8.163,8.163,0,0,0-2.363,3.272c-1.181,4.43,6.793,22.151,25.991,34.556s25.7,10.337,31.307,9.156S323.133,437.562,314.273,431.95Z" transform="translate(-60.271 -136.425)" fill="none" stroke="#263238" stroke-linecap="round" stroke-linejoin="round" stroke-width="1"/>
      <path id="Path_4073" data-name="Path 4073" d="M315.746,433.652c-7.679-4.43-23.333-7.384-33.375-14.177s-7.384-12.7-14.768-17.426a7.5,7.5,0,0,0-8.27-.473c-1.028,4.607,6.97,22.128,25.991,34.438s25.7,10.337,31.307,9.156c3.733-.792,5.352-4.052,3.426-7.8A16.115,16.115,0,0,0,315.746,433.652Z" transform="translate(-60.266 -136.059)" fill="#263238"/>
      <g id="Group_943" data-name="Group 943" transform="translate(198.98 264.497)" clip-path="url(#clip-path-12)">
        <path id="Path_4074" data-name="Path 4074" d="M315.746,433.652c-7.679-4.43-23.333-7.384-33.375-14.177s-7.384-12.7-14.768-17.426a7.5,7.5,0,0,0-8.27-.473c-1.028,4.607,6.97,22.128,25.991,34.438s25.7,10.337,31.307,9.156c3.733-.792,5.352-4.052,3.426-7.8A16.115,16.115,0,0,0,315.746,433.652Z" transform="translate(-259.246 -400.556)" fill="#fff" opacity="0.53"/>
      </g>
      <path id="Path_4076" data-name="Path 4076" d="M315.746,433.652c-7.679-4.43-23.333-7.384-33.375-14.177s-7.384-12.7-14.768-17.426a7.5,7.5,0,0,0-8.27-.473c-1.028,4.607,6.97,22.128,25.991,34.438s25.7,10.337,31.307,9.156c3.733-.792,5.352-4.052,3.426-7.8A16.115,16.115,0,0,0,315.746,433.652Z" transform="translate(-60.266 -136.059)" fill="none" stroke="#263238" stroke-linecap="round" stroke-linejoin="round" stroke-width="1"/>
      <path id="Path_4077" data-name="Path 4077" d="M183.112,381.3s5.671-6.888,6.474-1.618-.4,14.98-4.454,18.619-6.072-2.02-6.072-2.02l2.434-3.237s2.02,4.052,3.639-2.434-3.237-5.671-3.237-5.671Z" transform="translate(-74.813 -140.205)" fill="#fff" stroke="#263238" stroke-linecap="round" stroke-linejoin="round" stroke-width="1"/>
      <path id="Path_4078" data-name="Path 4078" d="M182.447,407.4c-3.355,2.481-14.3,2.481-17.638,0-7.088-5.257-5.907-30.658-5.907-30.658h29.37S189.547,402.14,182.447,407.4Z" transform="translate(-78.483 -140.38)" fill="#fff" stroke="#263238" stroke-linecap="round" stroke-linejoin="round" stroke-width="1"/>
      <path id="Path_4079" data-name="Path 4079" d="M161.61,377.432c0-3.19,2.965-3.19,2.965-6.391s-2.965-3.2-2.965-6.391,2.965-3.2,2.965-6.4-2.965-3.2-2.965-6.4,2.965-3.2,2.965-6.4" transform="translate(-77.978 -146.058)" fill="none" stroke="#263238" stroke-linecap="round" stroke-linejoin="round" stroke-width="1"/>
      <path id="Path_4080" data-name="Path 4080" d="M170.2,376.25c0-2.363,2.965-2.363,2.965-4.856s-2.965-2.422-2.965-4.856,2.965-2.422,2.965-4.856-2.965-2.434-2.965-4.867,2.965-2.422,2.965-4.856" transform="translate(-76.42 -144.875)" fill="none" stroke="#263238" stroke-linecap="round" stroke-linejoin="round" stroke-width="1"/>
      <path id="Path_4081" data-name="Path 4081" d="M179.65,377.432c0-3.19,2.954-3.19,2.954-6.391s-2.954-3.2-2.954-6.391,2.954-3.2,2.954-6.4-2.954-3.2-2.954-6.4,2.954-3.2,2.954-6.4" transform="translate(-74.706 -146.058)" fill="none" stroke="#263238" stroke-linecap="round" stroke-linejoin="round" stroke-width="1"/>
      <path id="Path_4082" data-name="Path 4082" d="M188.28,376.945c0,.744-6.569,1.335-14.685,1.335s-14.685-.591-14.685-1.335,6.569-1.335,14.685-1.335S188.28,376.2,188.28,376.945Z" transform="translate(-78.468 -140.585)" fill="#fff" stroke="#263238" stroke-linecap="round" stroke-linejoin="round" stroke-width="1"/>
      <path id="Path_4083" data-name="Path 4083" d="M206.72,222.055s1.382,14.921,1.961,19.635,1.89,18.253,3.249,22.73,8.766,12.263,9.451,10.467,4.371-13.976,2.906-21.265-1.914-13.515-1-15.358,4.182-3.91,4.182-3.91a118.643,118.643,0,0,1-11.093-6.462C211.15,224.418,207.452,220.483,206.72,222.055Z" transform="translate(-69.795 -168.505)" fill="#fff"/>
      <g id="Group_944" data-name="Group 944" transform="translate(136.925 53.194)" clip-path="url(#clip-path-13)">
        <path id="Path_4084" data-name="Path 4084" d="M225.678,235.152,224.5,232.86c-2.174-1.181-5.2-2.93-8.069-4.856-5.257-3.544-8.955-7.526-9.688-5.907,0,0,1.382,14.921,1.961,19.635s1.89,18.253,3.249,22.73a15.276,15.276,0,0,0,1.9,3.686c-1.43-8.908.118-25,.118-25Z" transform="translate(-206.716 -221.694)" fill="#478bca"/>
        <path id="Path_4085" data-name="Path 4085" d="M225.678,235.152,224.5,232.86c-2.174-1.181-5.2-2.93-8.069-4.856-5.257-3.544-8.955-7.526-9.688-5.907,0,0,1.382,14.921,1.961,19.635s1.89,18.253,3.249,22.73a15.276,15.276,0,0,0,1.9,3.686c-1.43-8.908.118-25,.118-25Z" transform="translate(-206.716 -221.694)" fill="#fff" opacity="0.5"/>
      </g>
      <path id="Path_4087" data-name="Path 4087" d="M206.72,222.055s1.382,14.921,1.961,19.635,1.89,18.253,3.249,22.73,8.766,12.263,9.451,10.467,4.371-13.976,2.906-21.265-1.914-13.515-1-15.358,4.182-3.91,4.182-3.91a118.643,118.643,0,0,1-11.093-6.462C211.15,224.418,207.452,220.483,206.72,222.055Z" transform="translate(-69.795 -168.505)" fill="none" stroke="#263238" stroke-linecap="round" stroke-linejoin="round" stroke-width="1"/>
      <path id="Path_4088" data-name="Path 4088" d="M207.256,229.411s8.506,7.088,15.027,9.688,16.54,2.434,17.969-.957-2.481-30.244-5.848-37.309-6.958-7.183-12.9-7.726-17.827,4.3-19.919,10.042.3,13.87,2.02,18.69A35.44,35.44,0,0,0,207.256,229.411Z" transform="translate(-70.875 -173.699)" fill="#fff"/>
      <g id="Group_945" data-name="Group 945" transform="translate(129.895 19.365)" clip-path="url(#clip-path-14)">
        <path id="Path_4089" data-name="Path 4089" d="M222.537,229.092c-3.013-8.931-3.769-22.99-3.769-26.735,0-2.894,7.537-6.072,10.975-7.372-2.256-1.394-4.879-1.571-8.27-1.878-5.907-.532-17.827,4.3-19.919,10.042s.3,13.87,2.02,18.69a35.442,35.442,0,0,0,3.651,7.573s8.506,7.088,15.027,9.688a27.066,27.066,0,0,0,14.177,1.359C231.764,238.7,224.546,235.058,222.537,229.092Z" transform="translate(-200.775 -193.064)" fill="#478bca"/>
        <path id="Path_4090" data-name="Path 4090" d="M222.537,229.092c-3.013-8.931-3.769-22.99-3.769-26.735,0-2.894,7.537-6.072,10.975-7.372-2.256-1.394-4.879-1.571-8.27-1.878-5.907-.532-17.827,4.3-19.919,10.042s.3,13.87,2.02,18.69a35.442,35.442,0,0,0,3.651,7.573s8.506,7.088,15.027,9.688a27.066,27.066,0,0,0,14.177,1.359C231.764,238.7,224.546,235.058,222.537,229.092Z" transform="translate(-200.775 -193.064)" fill="#fff" opacity="0.5"/>
      </g>
      <path id="Path_4092" data-name="Path 4092" d="M207.256,229.411s8.506,7.088,15.027,9.688,16.54,2.434,17.969-.957-2.481-30.244-5.848-37.309-6.958-7.183-12.9-7.726-17.827,4.3-19.919,10.042.3,13.87,2.02,18.69A35.44,35.44,0,0,0,207.256,229.411Z" transform="translate(-70.875 -173.699)" fill="none" stroke="#263238" stroke-linecap="round" stroke-linejoin="round" stroke-width="1"/>
      <path id="Path_4093" data-name="Path 4093" d="M231.312,209.909c.142,3.4-2,6.25-4.726,6.356s-5.116-2.552-5.245-5.907,2-6.25,4.726-6.368S231.182,206.472,231.312,209.909Z" transform="translate(-67.144 -171.718)" fill="none" stroke="#263238" stroke-linecap="round" stroke-linejoin="round" stroke-width="1"/>
      <path id="Path_4094" data-name="Path 4094" d="M236.269,208.811c.142,3.4-.957,6.2-2.446,6.261s-2.812-2.646-2.942-6.049.969-6.214,2.457-6.273S236.139,205.408,236.269,208.811Z" transform="translate(-65.414 -171.943)" fill="none" stroke="#263238" stroke-linecap="round" stroke-linejoin="round" stroke-width="1"/>
      <path id="Path_4095" data-name="Path 4095" d="M230.08,207.94s9.758,1.855,8.813,4.206-7.537,4.891-7.537,4.891" transform="translate(-65.557 -171.001)" fill="#fff" stroke="#263238" stroke-linecap="round" stroke-linejoin="round" stroke-width="1"/>
      <path id="Path_4096" data-name="Path 4096" d="M229.57,207.1s.142-1.181,1.642-.437" transform="translate(-65.65 -171.276)" fill="none" stroke="#263238" stroke-linecap="round" stroke-linejoin="round" stroke-width="1"/>
      <line id="Line_153" data-name="Line 153" x1="17.745" y2="6.982" transform="translate(136.145 39.113)" fill="none" stroke="#263238" stroke-linecap="round" stroke-linejoin="round" stroke-width="1"/>
      <path id="Path_4097" data-name="Path 4097" d="M221.28,205.332a4.5,4.5,0,0,1,4.418-2.67" transform="translate(-67.154 -171.96)" fill="none" stroke="#263238" stroke-linecap="round" stroke-linejoin="round" stroke-width="2"/>
      <line id="Line_154" data-name="Line 154" x1="2.729" y2="1.028" transform="translate(163.211 30.784)" fill="none" stroke="#263238" stroke-linecap="round" stroke-linejoin="round" stroke-width="2"/>
      <path id="Path_4098" data-name="Path 4098" d="M224.14,219.531s3.544-.921,5.553,1.181" transform="translate(-66.635 -168.935)" fill="none" stroke="#263238" stroke-linecap="round" stroke-linejoin="round" stroke-width="1"/>
      <path id="Path_4099" data-name="Path 4099" d="M226.318,209.832c.165,1.181,0,2.2-.484,2.256s-.91-.851-1.075-2.044.059-2.186.5-2.245S226.164,208.651,226.318,209.832Z" transform="translate(-66.533 -171.027)" fill="#263238"/>
      <path id="Path_4100" data-name="Path 4100" d="M210.161,222.815s-1.181,2.363,2.15,2.481,5.6-1.5,3.981-3.544-4.017-3.958-1.548-6.628,7.266-4.915,4.572-7.892-12.606-.272-10.125-2.682,13.941-4.926,19.092-4.607,14.768-3.674,16.882-8.9-.839-14.874-7.762-14.354-12.086,6.651-15.157,7.088-9.369-2.977-14.649,0-5.458,11.531-5.907,12.582-7.608,2.611-8.872,9.853a19.3,19.3,0,0,0,4.986,16.315c2.965,3.225,4.3,4.454,4.3,4.454Z" transform="translate(-72.362 -176.673)" fill="#263238" stroke="#263238" stroke-linecap="round" stroke-linejoin="round" stroke-width="1"/>
      <path id="Path_4101" data-name="Path 4101" d="M194.741,204.65a5.612,5.612,0,0,0,.756,3.143" transform="translate(-71.97 -171.598)" fill="none" stroke="#fff" stroke-linecap="round" stroke-linejoin="round" stroke-width="0.75"/>
      <path id="Path_4102" data-name="Path 4102" d="M224.676,189.685s-2.575-5.635,3.993-5.635,7.514,8.27.709,11.271-21.608,3.757-29.594,7.289a10.385,10.385,0,0,0-4.064,2.871" transform="translate(-71.79 -175.335)" fill="none" stroke="#fff" stroke-linecap="round" stroke-linejoin="round" stroke-width="0.75"/>
      <path id="Path_4103" data-name="Path 4103" d="M212.284,205.76c-2.363.851-5.423,2.032-8.53,3.473-6.58,3.06-5.175,6.108-5.175,6.108" transform="translate(-71.295 -171.396)" fill="none" stroke="#fff" stroke-linecap="round" stroke-linejoin="round" stroke-width="0.75"/>
      <path id="Path_4104" data-name="Path 4104" d="M214.109,204.53s-.579.165-1.559.484" transform="translate(-68.737 -171.619)" fill="none" stroke="#fff" stroke-linecap="round" stroke-linejoin="round" stroke-width="0.75"/>
      <path id="Path_4105" data-name="Path 4105" d="M209.909,218.456s-3.816-5.505-7.833-3.3-.9,10.066,1.524,12.795,7.088-2.363,7.573-3.639" transform="translate(-70.988 -169.786)" fill="#fff"/>
      <g id="Group_946" data-name="Group 946" transform="translate(129.158 44.851)" clip-path="url(#clip-path-15)">
        <path id="Path_4106" data-name="Path 4106" d="M209.909,218.456s-3.816-5.505-7.833-3.3-.9,10.066,1.524,12.795,7.088-2.363,7.573-3.639" transform="translate(-200.145 -214.637)" fill="#478bca"/>
        <path id="Path_4107" data-name="Path 4107" d="M209.909,218.456s-3.816-5.505-7.833-3.3-.9,10.066,1.524,12.795,7.088-2.363,7.573-3.639" transform="translate(-200.145 -214.637)" fill="#fff" opacity="0.5"/>
      </g>
      <path id="Path_4109" data-name="Path 4109" d="M209.909,218.456s-3.816-5.505-7.833-3.3-.9,10.066,1.524,12.795,7.088-2.363,7.573-3.639" transform="translate(-70.988 -169.786)" fill="none" stroke="#263238" stroke-linecap="round" stroke-linejoin="round" stroke-width="1"/>
      <rect id="Rectangle_2550" data-name="Rectangle 2550" width="96.781" height="74.003" rx="5.12" transform="translate(0 43.649)" fill="#fff" stroke="#263238" stroke-linecap="round" stroke-linejoin="round" stroke-width="1"/>
      <path id="Path_4110" data-name="Path 4110" d="M171.18,260.675l56.708,14.768L171.18,247.68" transform="translate(-76.242 -163.792)" fill="#fff" stroke="#263238" stroke-linecap="round" stroke-linejoin="round" stroke-width="1"/>
      <rect id="Rectangle_2551" data-name="Rectangle 2551" width="22.766" height="59.779" transform="translate(7.821 50.762)" fill="#478bca" stroke="#263238" stroke-linecap="round" stroke-linejoin="round" stroke-width="1"/>
      <rect id="Rectangle_2552" data-name="Rectangle 2552" width="2.847" height="59.779" transform="translate(88.913 50.762)" fill="#478bca" stroke="#263238" stroke-linecap="round" stroke-linejoin="round" stroke-width="1"/>
      <rect id="Rectangle_2553" data-name="Rectangle 2553" width="2.847" height="5.104" transform="translate(88.913 78.087)" fill="#263238" stroke="#263238" stroke-linecap="round" stroke-linejoin="round" stroke-width="1"/>
      <line id="Line_155" data-name="Line 155" x2="44.834" transform="translate(37.71 52.179)" fill="#fff" stroke="#263238" stroke-linecap="round" stroke-linejoin="round" stroke-width="1"/>
      <line id="Line_156" data-name="Line 156" x2="44.834" transform="translate(37.71 58.582)" fill="#fff" stroke="#263238" stroke-linecap="round" stroke-linejoin="round" stroke-width="1"/>
      <line id="Line_157" data-name="Line 157" x2="44.834" transform="translate(37.71 64.998)" fill="#fff" stroke="#263238" stroke-linecap="round" stroke-linejoin="round" stroke-width="1"/>
      <line id="Line_158" data-name="Line 158" x2="44.834" transform="translate(37.71 71.401)" fill="#fff" stroke="#263238" stroke-linecap="round" stroke-linejoin="round" stroke-width="1"/>
      <line id="Line_159" data-name="Line 159" x2="44.834" transform="translate(37.71 87.054)" fill="#fff" stroke="#263238" stroke-linecap="round" stroke-linejoin="round" stroke-width="1"/>
      <line id="Line_160" data-name="Line 160" x2="44.834" transform="translate(37.71 92.749)" fill="#fff" stroke="#263238" stroke-linecap="round" stroke-linejoin="round" stroke-width="1"/>
      <line id="Line_161" data-name="Line 161" x2="44.834" transform="translate(37.71 98.443)" fill="#fff" stroke="#263238" stroke-linecap="round" stroke-linejoin="round" stroke-width="1"/>
      <line id="Line_162" data-name="Line 162" x2="44.834" transform="translate(37.71 110.257)" fill="#fff" stroke="#263238" stroke-linecap="round" stroke-linejoin="round" stroke-width="1"/>
      <line id="Line_163" data-name="Line 163" y1="59.767" x2="22.778" transform="translate(7.821 50.762)" fill="none" stroke="#263238" stroke-linecap="round" stroke-linejoin="round" stroke-width="1"/>
    </g>
    <g id="freepik--Plants--inject-289" transform="translate(418.658 308.144)">
      <ellipse id="Ellipse_67" data-name="Ellipse 67" cx="19.765" cy="8.861" rx="19.765" ry="8.861" transform="translate(7.803 145.899)" fill="#478bca"/>
      <ellipse id="Ellipse_68" data-name="Ellipse 68" cx="19.765" cy="8.861" rx="19.765" ry="8.861" transform="translate(7.803 145.899)" fill="#fff" opacity="0.5"/>
      <path id="Path_4111" data-name="Path 4111" d="M368.983,293.112c2.115.921,7.289.8,7.289.8s-1.111-3.391-1.181-3.544c-1.181-2.363-4.726-6.3-7.644-5.907a3.544,3.544,0,0,0-2.8,4.371C365.084,290.82,367.175,292.32,368.983,293.112Z" transform="translate(-364.535 -269.465)" fill="#263238"/>
      <path id="Path_4112" data-name="Path 4112" d="M436.661,277.8c-2.93-.307-6.415,3.7-7.49,6.108-.094.213-1.181,3.627-1.111,3.627h.059c-.555.626-1.181,1.311-1.76,2.067-1.181,1.406-2.434,3-3.71,4.844a60.8,60.8,0,0,0-3.84,6.12,45.454,45.454,0,0,0-3.284,7.4.223.223,0,0,0,0,.094c0-.862,0-3.284,0-3.473-.343-2.6-2.528-7.455-5.434-7.986a3.544,3.544,0,0,0-4.017,3.284c-.165,2.067,1.335,4.147,2.8,5.458,1.654,1.477,6.238,2.906,6.6,3.013a63.929,63.929,0,0,0-1.937,8.01c-.284,1.583-.508,3.178-.733,4.785V319.63c-.343-2.611-2.528-7.455-5.423-7.986a3.544,3.544,0,0,0-4.029,3.272c-.165,2.079,1.335,4.147,2.8,5.458s5.375,2.635,6.415,2.965c-.071.614-.154,1.181-.236,1.843-.354,2.953-.685,5.907-1.111,8.8-.154,1.016-.331,2.008-.508,3v-1.3c-.343-2.611-2.528-7.455-5.434-8a3.544,3.544,0,0,0-4.017,3.284c-.165,2.079,1.335,4.147,2.8,5.458s5,2.5,6.226,2.894c-.213,1.016-.437,2.032-.685,3.013-.189.662-.331,1.311-.555,1.961s-.414,1.3-.626,1.938c-.437,1.181-.886,2.481-1.347,3.651-.319.827-.638,1.607-.945,2.363.154-1.016.425-3,.425-3.166a13.539,13.539,0,0,0-1.807-6.592,5.589,5.589,0,0,0,0-.768,3.544,3.544,0,0,0-4.265-2.953c-2.847.756-4.655,5.753-4.8,8.376,0,.165.094,1.855.177,2.918-.142-.614-.272-1.181-.425-1.855-.307-1.264-.638-2.516-.992-3.851-.2-.65-.39-1.3-.591-1.949s-.461-1.323-.685-2c-.567-1.536-1.181-3.072-1.9-4.607,1.111-.26,5.009-1.252,6.58-2.457s3.213-3.154,3.19-5.234a3.473,3.473,0,0,0-3.757-3.544c-2.942.319-5.482,4.986-6.013,7.561,0,.165-.2,2.056-.284,3.1-.414-.922-.827-1.831-1.276-2.753-1.311-2.635-2.717-5.257-4.111-7.892-.437-.8-.851-1.607-1.264-2.422.39-.083,5.056-1.181,6.8-2.516,1.559-1.181,3.213-3.154,3.2-5.234a3.544,3.544,0,0,0-3.769-3.544c-2.93.319-5.47,4.986-6,7.561,0,.189-.284,2.918-.319,3.615-.921-1.784-1.819-3.544-2.646-5.352a61.836,61.836,0,0,1-2.871-7.419c.177,0,5.056-1.181,6.852-2.528,1.559-1.181,3.213-3.154,3.2-5.234a3.544,3.544,0,0,0-3.769-3.544c-2.93.319-5.47,4.986-6,7.561,0,.213-.307,3.143-.319,3.674a1.685,1.685,0,0,0-.154-.449,44.617,44.617,0,0,1-1.489-7.845c-.165-1.453-.236-2.871-.284-4.241.933-.106,5.163-.673,6.923-1.737s3.544-2.776,3.757-4.856a3.544,3.544,0,0,0-3.355-3.958c-2.953,0-5.99,4.359-6.8,6.852,0,.142-.331,1.571-.532,2.623v-1.855c0-2.221.142-4.265.284-6.072.094-1.028.189-1.949.3-2.824.851-.579,4.253-2.989,5.3-4.726s1.867-4.1,1.1-6.025a3.473,3.473,0,0,0-4.8-1.973c-2.623,1.347-3.308,6.616-2.883,9.215,0,.224,1.028,3.662,1.075,3.639h0c-.106.827-.224,1.725-.331,2.694-.177,1.808-.366,3.851-.414,6.1a62.92,62.92,0,0,0,.165,7.218,45.745,45.745,0,0,0,1.347,7.974.225.225,0,0,0,0,.094c-.461-.721-1.831-2.717-1.949-2.859-1.725-2-6.214-4.82-8.931-3.674a3.544,3.544,0,0,0-1.548,4.95c1,1.831,3.4,2.729,5.352,3.013,2.186.319,6.8-1.016,7.171-1.122a62.847,62.847,0,0,0,2.8,7.738c.638,1.477,1.323,2.942,2.032,4.395a9.316,9.316,0,0,0-.862-1.181c-1.725-1.985-6.226-4.82-8.931-3.674a3.544,3.544,0,0,0-1.548,4.962c1,1.819,3.4,2.729,5.34,3.013s5.907-.78,6.982-1.075c.272.555.543,1.111.827,1.666,1.335,2.67,2.682,5.316,3.922,7.951.437.933.827,1.867,1.181,2.8-.366-.555-.685-1-.744-1.075-1.725-1.985-6.226-4.82-8.931-3.674a3.544,3.544,0,0,0-1.548,4.962c1,1.819,3.4,2.717,5.34,3s5.553-.673,6.793-1.016c.378.969.768,1.938,1.087,2.894.213.65.461,1.264.626,1.938s.366,1.311.555,1.961c.3,1.264.614,2.564.886,3.792.189.862.354,1.678.52,2.5-.425-.933-1.3-2.729-1.382-2.871-1.406-2.233-5.423-5.718-8.27-4.986a3.473,3.473,0,0,0-2.28,4.667c.709,1.949,2.942,3.2,4.82,3.781,2.079.626,6.663,0,7.23,0,.272,1.37.532,2.705.744,3.97.78,4.371,1.252,8.045,1.548,10.633a9.631,9.631,0,0,0,.142,1.252h-8.872l2.847,55.644a7.963,7.963,0,0,0,7.951,7.549h0a7.95,7.95,0,0,0,7.939-7.548l2.859-55.646h-8.27c.059-.13.118-.248.189-.378,1.181-2.363,2.705-5.765,4.407-9.912.532-1.311,1.087-2.729,1.63-4.182.555.118,5.092,1.04,7.207.555,1.926-.425,4.241-1.512,5.1-3.4a3.544,3.544,0,0,0-1.926-4.832c-2.8-.933-7.089,2.245-8.624,4.359-.095.118-.933,1.595-1.453,2.528.213-.6.437-1.181.662-1.8.449-1.181.851-2.434,1.3-3.757.189-.638.39-1.288.579-1.949s.354-1.359.532-2.044c.378-1.595.685-3.225.957-4.879,1.063.39,4.867,1.713,6.84,1.571s4.418-.862,5.553-2.6a3.544,3.544,0,0,0-1.181-5.056c-2.623-1.359-7.313,1.181-9.18,2.989-.118.118-1.311,1.607-1.949,2.434.165-1,.319-2,.449-3,.366-2.93.638-5.907.921-8.861l.284-2.705c.378.142,4.867,1.808,7.088,1.654,1.961-.142,4.418-.862,5.553-2.6a3.544,3.544,0,0,0-1.181-5.056c-2.623-1.359-7.325,1.181-9.18,2.989-.142.142-1.855,2.28-2.256,2.847.2-2,.437-3.981.744-5.907a62.235,62.235,0,0,1,1.689-7.785c.177.071,4.856,1.831,7.088,1.666,1.961-.13,4.418-.851,5.553-2.6a3.544,3.544,0,0,0-1.181-5.056c-2.623-1.347-7.313,1.181-9.18,3-.142.142-1.985,2.446-2.28,2.883a1.579,1.579,0,0,1,.118-.449,44.654,44.654,0,0,1,3.083-7.372c.662-1.311,1.382-2.528,2.1-3.686.839.413,4.726,2.28,6.734,2.363s4.478-.366,5.8-1.973a3.544,3.544,0,0,0-.6-5.163c-2.457-1.63-7.4.331-9.451,1.973-.106.094-1.181,1.181-1.89,1.89l.992-1.571c1.24-1.855,2.481-3.473,3.544-4.9.638-.815,1.24-1.524,1.8-2.2,1.04,0,5.21-.142,7.029-.992s3.816-2.363,4.253-4.43a3.544,3.544,0,0,0-2.942-4.489Zm-32.453,78.729c-1.772,4.076-3.4,7.407-4.572,9.711L399,367.5h-.2c-.059-.449-.118-.945-.2-1.5-.354-2.6-.91-6.3-1.784-10.633-.284-1.394-.6-2.883-.945-4.395a41.677,41.677,0,0,0,4.04-1.89,24.989,24.989,0,0,0,5.907,3.781C405.247,354.1,404.728,355.356,404.208,356.525Z" transform="translate(-364.448 -271.764)" fill="#263238"/>
      <path id="Path_4113" data-name="Path 4113" d="M413.685,294.749s.933-3.438.969-3.662c.366-2.611-.473-7.856-3.119-9.144a3.544,3.544,0,0,0-4.726,2.1c-.709,1.961.189,4.359,1.264,6.013C409.3,292,413.673,294.749,413.685,294.749Z" transform="translate(-356.912 -269.968)" fill="#263238"/>
    </g>
  </g>
</svg>
