<svg width="620" height="620" viewBox="0 0 620 620" fill="none" xmlns="http://www.w3.org/2000/svg">
<path d="M84.7479 425.654C73.2797 335.216 128.633 215.175 186.127 165.589C289.799 76.0398 375.887 93.3577 442.861 125.477C509.835 157.597 519.468 264.612 565.647 313.013C611.825 361.415 638.279 426.69 568.093 491.521C497.908 556.352 441.332 523.492 367.935 519.348C294.539 515.203 197.289 547.619 144.688 519.496C107.99 499.662 89.7939 465.618 84.7479 425.654Z" fill="#E8E8E8"/>
<path d="M598.671 425.802H381.693L52.021 528.821" stroke="#263238" stroke-miterlimit="10" stroke-linecap="round" stroke-linejoin="round"/>
<path d="M499.895 417.957H514.88V178.023H483.992L497.296 131.398H537.358L550.661 178.023H519.773V417.957H534.758C542.71 417.957 549.285 424.174 549.438 431.871C549.438 431.871 549.438 431.871 549.438 432.019V432.167C548.979 435.571 534.758 438.235 517.327 438.235C499.895 438.235 485.674 435.571 485.216 432.167H485.063C485.216 424.322 491.791 417.957 499.895 417.957Z" fill="#2F2F2F"/>
<path d="M376.043 563.011C279.01 563.011 200.35 539.287 200.35 510.021C200.35 480.756 279.01 457.032 376.043 457.032C473.075 457.032 551.735 480.756 551.735 510.021C551.735 539.287 473.075 563.011 376.043 563.011Z" fill="#2F2F2F"/>
<path opacity="0.5" d="M376.043 563.011C279.01 563.011 200.35 539.287 200.35 510.021C200.35 480.756 279.01 457.032 376.043 457.032C473.075 457.032 551.735 480.756 551.735 510.021C551.735 539.287 473.075 563.011 376.043 563.011Z" fill="white"/>
<path d="M390.872 276.305C390.872 276.305 430.628 271.717 456.929 291.551C483.229 311.385 505.707 393.978 505.095 433.646C504.636 473.166 489.345 493 451.118 509.282C412.891 525.564 341.635 519.495 301.726 507.21C261.97 495.072 248.819 452.444 249.278 429.65C249.737 406.855 276.037 380.508 284.906 374.884C293.775 369.259 319.005 357.566 331.543 339.36C344.235 321.006 362.584 281.486 390.872 276.305Z" fill="white"/>
<path opacity="0.13" d="M294.386 504.546C309.371 502.621 327.261 498.625 340.87 490.632C369.464 473.906 376.498 442.231 386.743 430.39C396.988 418.548 415.337 419.584 423.441 406.707C431.545 393.83 418.395 299.1 441.79 293.179C448.059 291.551 452.799 291.107 456.469 291.107C456.622 291.255 456.775 291.255 456.928 291.403C483.075 311.237 505.706 393.83 505.094 433.498C504.636 473.018 489.345 492.852 451.117 509.134C412.89 525.416 341.634 519.347 301.725 507.062C299.126 506.47 296.832 505.582 294.386 504.546Z" fill="black"/>
<path d="M390.872 276.305C390.872 276.305 430.628 271.717 456.929 291.551C483.229 311.385 505.707 393.978 505.095 433.646C504.636 473.166 489.345 493 451.118 509.282C412.891 525.564 341.635 519.495 301.726 507.21C261.97 495.072 248.819 452.444 249.278 429.65C249.737 406.855 276.037 380.508 284.906 374.884C293.775 369.259 319.005 357.566 331.543 339.36C344.235 321.006 362.584 281.486 390.872 276.305Z" stroke="#2F2F2F" stroke-miterlimit="10" stroke-linecap="round" stroke-linejoin="round"/>
<path d="M406.471 294.215C406.471 294.215 432.466 299.1 437.053 303.54C441.64 307.981 460.754 377.548 460.754 377.548C460.754 377.548 452.344 375.328 444.699 378.288C437.053 381.248 436.289 389.093 435.524 392.793C434.76 396.494 434.301 406.115 434.301 406.115C434.301 406.115 357.082 399.454 340.568 395.754C324.053 392.053 299.129 390.425 299.129 390.425C299.129 390.425 341.332 298.211 347.907 294.807C354.482 291.403 381.547 291.107 385.37 291.847C389.193 292.587 406.471 294.215 406.471 294.215Z" fill="#2F2F2F" stroke="#2F2F2F" stroke-miterlimit="10" stroke-linecap="round" stroke-linejoin="round"/>
<path d="M432.16 379.768L425.585 328.258" stroke="white" stroke-miterlimit="10" stroke-linecap="round" stroke-linejoin="round"/>
<path d="M427.113 342.024L418.397 330.923" stroke="white" stroke-miterlimit="10" stroke-linecap="round" stroke-linejoin="round"/>
<path d="M400.815 348.684C400.815 348.684 375.891 340.839 359.529 340.839" stroke="white" stroke-miterlimit="10" stroke-linecap="round" stroke-linejoin="round"/>
<path d="M377.265 327.371L378.947 339.656C378.947 339.656 374.665 339.656 374.359 341.58C374.054 343.504 375.888 345.28 375.888 345.28C375.888 345.28 363.962 351.645 362.432 359.046" stroke="white" stroke-miterlimit="10" stroke-linecap="round" stroke-linejoin="round"/>
<path d="M392.25 280.449C392.25 280.449 406.471 284.89 408.612 288.294C410.599 291.699 409.07 315.973 409.07 318.933C409.07 321.894 407.235 317.157 405.706 313.753C404.177 310.349 398.825 305.168 396.991 305.612C395.156 306.056 394.238 308.128 394.238 311.237C394.238 314.493 390.11 318.933 386.593 321.302C383.076 323.818 379.712 326.186 379.712 326.186C379.712 326.186 372.372 315.825 370.537 313.161C368.702 310.497 369.008 304.724 368.702 302.8C368.397 300.876 363.809 308.276 362.892 306.204C361.821 304.28 365.185 302.504 368.702 297.027C372.219 291.551 371.302 285.926 376.654 281.93C382.005 278.229 388.122 279.413 392.25 280.449Z" fill="white"/>
<path d="M408.61 288.294C409.986 290.662 409.681 302.059 409.375 310.496C406.164 306.5 399.436 298.803 395.46 300.283C390.567 302.059 388.579 315.825 388.579 315.825L391.943 280.597H392.096C392.249 280.449 406.47 284.89 408.61 288.294Z" fill="#18191E"/>
<path opacity="0.5" d="M408.61 288.294C409.986 290.662 409.681 302.059 409.375 310.496C406.164 306.5 399.436 298.803 395.46 300.283C390.567 302.059 388.579 315.825 388.579 315.825L391.943 280.597H392.096C392.249 280.449 406.47 284.89 408.61 288.294Z" fill="white"/>
<path d="M392.25 280.449C392.25 280.449 406.471 284.89 408.612 288.294C410.599 291.699 409.07 315.973 409.07 318.933C409.07 321.894 407.235 317.157 405.706 313.753C404.177 310.349 398.825 305.168 396.991 305.612C395.156 306.056 394.238 308.128 394.238 311.237C394.238 314.493 390.11 318.933 386.593 321.302C383.076 323.818 379.712 326.186 379.712 326.186C379.712 326.186 372.372 315.825 370.537 313.161C368.702 310.497 369.008 304.724 368.702 302.8C368.397 300.876 363.809 308.276 362.892 306.204C361.821 304.28 365.185 302.504 368.702 297.027C372.219 291.551 371.302 285.926 376.654 281.93C382.005 278.229 388.122 279.413 392.25 280.449Z" stroke="#2F2F2F" stroke-miterlimit="10" stroke-linecap="round" stroke-linejoin="round"/>
<path d="M426.04 380.509C426.04 380.509 434.909 368.223 445.612 367.187C456.316 366.151 469.313 374.588 469.772 377.548C470.231 380.509 472.83 396.494 470.995 398.714C469.16 400.935 461.821 402.859 447.6 398.27C433.38 393.682 427.569 388.205 426.04 380.509Z" fill="white"/>
<path d="M461.819 398.27C461.819 398.27 464.878 389.833 463.349 386.873C461.819 383.912 455.703 379.472 451.88 375.031C448.058 370.591 460.749 377.548 461.361 375.031C461.819 372.959 454.633 368.963 451.88 367.482C460.749 369.111 469.312 375.179 469.618 377.548C470.077 380.508 472.676 396.494 470.841 398.714C469.924 399.898 467.477 400.934 463.349 401.082C462.278 399.306 461.819 398.27 461.819 398.27Z" fill="#18191E"/>
<path opacity="0.5" d="M461.819 398.27C461.819 398.27 464.878 389.833 463.349 386.873C461.819 383.912 455.703 379.472 451.88 375.031C448.058 370.591 460.749 377.548 461.361 375.031C461.819 372.959 454.633 368.963 451.88 367.482C460.749 369.111 469.312 375.179 469.618 377.548C470.077 380.508 472.676 396.494 470.841 398.714C469.924 399.898 467.477 400.934 463.349 401.082C462.278 399.306 461.819 398.27 461.819 398.27Z" fill="white"/>
<path d="M426.04 380.509C426.04 380.509 434.909 368.223 445.612 367.187C456.316 366.151 469.313 374.588 469.772 377.548C470.231 380.509 472.83 396.494 470.995 398.714C469.16 400.935 461.821 402.859 447.6 398.27C433.38 393.682 427.569 388.205 426.04 380.509Z" stroke="#2F2F2F" stroke-miterlimit="10" stroke-linecap="round" stroke-linejoin="round"/>
<path d="M455.861 383.766C455.861 383.766 470.234 389.242 470.846 400.048C471.152 405.968 460.907 408.633 450.203 408.633C439.499 408.633 424.209 395.607 414.269 390.13C404.33 384.654 381.394 371.628 378.642 370.444C375.889 369.26 366.715 372.368 362.892 373.404C359.069 374.441 351.73 374.589 351.73 374.589C351.73 374.589 346.378 382.73 343.625 382.73C340.873 382.73 349.436 370.444 350.506 367.928C351.577 365.412 370.385 359.343 372.678 359.343C374.972 359.343 428.49 372.368 436.594 375.329C444.698 378.289 455.861 383.766 455.861 383.766Z" fill="white"/>
<path d="M425.892 382.285C404.026 371.776 372.985 359.342 372.985 359.342C375.279 359.342 428.797 372.368 436.901 375.328C445.005 378.289 456.015 383.913 456.015 383.913C456.015 383.913 470.388 389.39 471 400.195C471.306 406.116 461.061 408.78 450.357 408.78C439.654 408.78 424.363 395.754 414.424 390.278C412.742 389.39 410.601 388.206 408.46 386.873C422.681 388.502 442.253 390.13 425.892 382.285Z" fill="#18191E"/>
<path opacity="0.5" d="M425.892 382.285C404.026 371.776 372.985 359.342 372.985 359.342C375.279 359.342 428.797 372.368 436.901 375.328C445.005 378.289 456.015 383.913 456.015 383.913C456.015 383.913 470.388 389.39 471 400.195C471.306 406.116 461.061 408.78 450.357 408.78C439.654 408.78 424.363 395.754 414.424 390.278C412.742 389.39 410.601 388.206 408.46 386.873C422.681 388.502 442.253 390.13 425.892 382.285Z" fill="white"/>
<path d="M455.861 383.766C455.861 383.766 470.234 389.242 470.846 400.048C471.152 405.968 460.907 408.633 450.203 408.633C439.499 408.633 424.209 395.607 414.269 390.13C404.33 384.654 381.394 371.628 378.642 370.444C375.889 369.26 366.715 372.368 362.892 373.404C359.069 374.441 351.73 374.589 351.73 374.589C351.73 374.589 346.378 382.73 343.625 382.73C340.873 382.73 349.436 370.444 350.506 367.928C351.577 365.412 370.385 359.343 372.678 359.343C374.972 359.343 428.49 372.368 436.594 375.329C444.698 378.289 455.861 383.766 455.861 383.766Z" stroke="#2F2F2F" stroke-miterlimit="10" stroke-linecap="round" stroke-linejoin="round"/>
<path d="M344.084 301.468L355.705 364.966L271.605 365.411L259.066 305.316C258.607 303.096 260.289 300.876 262.736 300.876L340.108 298.655C342.096 298.359 343.625 299.692 344.084 301.468Z" fill="white" stroke="#2F2F2F" stroke-miterlimit="10" stroke-linecap="round" stroke-linejoin="round"/>
<path d="M355.706 364.966L396.686 392.942L302.952 390.425L271.606 365.262L355.706 364.966Z" fill="white"/>
<path d="M355.706 364.966L396.686 392.942L302.952 390.425L271.606 365.262L355.706 364.966Z" fill="#05080D"/>
<path opacity="0.5" d="M355.706 364.966L396.686 392.942L302.952 390.425L271.606 365.262L355.706 364.966Z" fill="white"/>
<path d="M355.706 364.966L396.686 392.942L302.952 390.425L271.606 365.262L355.706 364.966Z" stroke="#05080D" stroke-miterlimit="10" stroke-linecap="round" stroke-linejoin="round"/>
<path d="M324.665 392.646C324.665 392.646 291.025 364.079 257.844 354.458C224.663 344.837 217.629 346.317 218.393 360.823C219.158 375.328 235.213 450.816 245.917 470.058C256.621 489.3 270.077 524.528 269.618 531.189C269.159 537.85 256.162 557.536 244.694 564.493C233.225 571.449 234.296 580.034 241.635 581.514C248.975 582.995 257.385 585.659 282.156 569.969C306.928 554.279 317.325 532.225 315.796 526.6C314.267 520.976 298.212 513.575 291.637 502.474C285.062 491.373 274.358 449.928 273.593 430.982C272.829 412.036 265.948 396.198 265.948 396.198C265.948 396.198 307.998 403.599 320.231 411L324.665 392.646Z" fill="white"/>
<path d="M324.665 392.646C324.665 392.646 291.025 364.079 257.844 354.458C224.663 344.837 217.629 346.317 218.393 360.823C219.158 375.328 235.213 450.816 245.917 470.058C256.621 489.3 270.077 524.528 269.618 531.189C269.159 537.85 256.162 557.536 244.694 564.493C233.225 571.449 234.296 580.034 241.635 581.514C248.975 582.995 257.385 585.659 282.156 569.969C306.928 554.279 317.325 532.225 315.796 526.6C314.267 520.976 298.212 513.575 291.637 502.474C285.062 491.373 274.358 449.928 273.593 430.982C272.829 412.036 265.948 396.198 265.948 396.198C265.948 396.198 307.998 403.599 320.231 411L324.665 392.646Z" fill="#18191E"/>
<path opacity="0.5" d="M324.665 392.646C324.665 392.646 291.025 364.079 257.844 354.458C224.663 344.837 217.629 346.317 218.393 360.823C219.158 375.328 235.213 450.816 245.917 470.058C256.621 489.3 270.077 524.528 269.618 531.189C269.159 537.85 256.162 557.536 244.694 564.493C233.225 571.449 234.296 580.034 241.635 581.514C248.975 582.995 257.385 585.659 282.156 569.969C306.928 554.279 317.325 532.225 315.796 526.6C314.267 520.976 298.212 513.575 291.637 502.474C285.062 491.373 274.358 449.928 273.593 430.982C272.829 412.036 265.948 396.198 265.948 396.198C265.948 396.198 307.998 403.599 320.231 411L324.665 392.646Z" fill="white"/>
<path d="M324.665 392.646C324.665 392.646 291.025 364.079 257.844 354.458C224.663 344.837 217.629 346.317 218.393 360.823C219.158 375.328 235.213 450.816 245.917 470.058C256.621 489.3 270.077 524.528 269.618 531.189C269.159 537.85 256.162 557.536 244.694 564.493C233.225 571.449 234.296 580.034 241.635 581.514C248.975 582.995 257.385 585.659 282.156 569.969C306.928 554.279 317.325 532.225 315.796 526.6C314.267 520.976 298.212 513.575 291.637 502.474C285.062 491.373 274.358 449.928 273.593 430.982C272.829 412.036 265.948 396.198 265.948 396.198C265.948 396.198 307.998 403.599 320.231 411L324.665 392.646Z" stroke="#2F2F2F" stroke-miterlimit="10" stroke-linecap="round" stroke-linejoin="round"/>
<path d="M291.789 502.622C292.247 503.51 292.859 504.25 293.471 504.99C287.507 505.582 279.097 507.654 271.911 513.723C269.77 515.499 268.088 517.127 266.712 518.608C262.277 504.842 253.409 483.528 245.916 470.058C235.212 450.816 219.157 375.328 218.392 360.822C217.628 346.317 224.509 344.837 257.843 354.458C291.177 364.079 324.664 392.646 324.664 392.646L320.536 411.148C308.303 403.747 266.253 396.346 266.253 396.346C266.253 396.346 273.134 412.332 273.898 431.13C274.663 449.928 285.367 491.521 291.789 502.622Z" fill="white" stroke="#2F2F2F" stroke-miterlimit="10" stroke-linecap="round" stroke-linejoin="round"/>
<path d="M291.792 502.622C292.251 503.51 292.863 504.25 293.474 504.99C287.511 505.582 279.101 507.654 271.914 513.723C269.774 515.499 268.092 517.127 266.715 518.608C259.376 509.135 251.119 479.087 241.791 466.654C217.784 434.682 219.161 375.328 218.396 360.97C217.632 346.613 224.512 344.985 257.847 354.606C291.181 364.227 324.668 392.794 324.668 392.794L320.539 411.296C308.307 403.895 266.257 396.494 266.257 396.494C266.257 396.494 273.138 412.48 273.902 431.278C274.667 450.076 285.37 491.521 291.792 502.622Z" fill="#2F2F2F"/>
<path opacity="0.53" d="M291.792 502.622C292.251 503.51 292.863 504.25 293.474 504.99C287.511 505.582 279.101 507.654 271.914 513.723C269.774 515.499 268.092 517.127 266.715 518.608C259.376 509.135 251.119 479.087 241.791 466.654C217.784 434.682 219.161 375.328 218.396 360.97C217.632 346.613 224.512 344.985 257.847 354.606C291.181 364.227 324.668 392.794 324.668 392.794L320.539 411.296C308.307 403.895 266.257 396.494 266.257 396.494C266.257 396.494 273.138 412.48 273.902 431.278C274.667 450.076 285.37 491.521 291.792 502.622Z" fill="white"/>
<path opacity="0.14" d="M234.602 358.899C235.214 353.57 294.39 377.845 319.314 388.354C322.831 391.018 324.818 392.646 324.818 392.646L320.69 411.148C308.457 403.747 266.407 396.347 266.407 396.347C266.407 396.347 273.288 412.332 274.053 431.13C274.817 449.928 285.521 491.521 292.096 502.622C292.555 503.51 293.166 504.25 293.778 504.99C290.261 505.434 285.98 506.174 281.545 508.099C272.218 489.153 262.432 467.246 257.844 449.928C249.129 418.845 233.838 365.559 234.602 358.899Z" fill="black"/>
<path d="M266.253 396.346C266.253 396.346 254.785 373.7 244.846 364.523" stroke="#2F2F2F" stroke-miterlimit="10" stroke-linecap="round" stroke-linejoin="round"/>
<path d="M291.792 502.622C292.251 503.51 292.863 504.25 293.474 504.99C287.511 505.582 279.101 507.654 271.914 513.723C269.774 515.499 268.092 517.127 266.715 518.608C259.376 509.135 251.119 479.087 241.791 466.654C217.784 434.682 219.161 375.328 218.396 360.97C217.632 346.613 224.512 344.985 257.847 354.606C291.181 364.227 324.668 392.794 324.668 392.794L320.539 411.296C308.307 403.895 266.257 396.494 266.257 396.494C266.257 396.494 273.138 412.48 273.902 431.278C274.667 450.076 285.37 491.521 291.792 502.622Z" stroke="#2F2F2F" stroke-miterlimit="10" stroke-linecap="round" stroke-linejoin="round"/>
<path d="M375.126 422.545C375.126 422.545 356.318 422.101 338.886 415.884C321.607 409.815 353.107 398.566 365.034 404.783C377.266 410.851 375.126 422.545 375.126 422.545Z" fill="#2F2F2F" stroke="#2F2F2F" stroke-miterlimit="10" stroke-linecap="round" stroke-linejoin="round"/>
<path d="M424.819 398.566C424.819 398.566 437.051 405.227 441.333 412.628C445.614 420.029 427.418 432.314 408.304 431.574C389.191 430.834 354.175 410.704 354.175 410.704C354.175 410.704 353.716 443.267 347.294 455.109C340.871 466.95 311.054 495.813 299.127 503.214C287.2 510.614 247.444 538.441 241.328 542.882C235.211 547.322 223.743 555.463 220.991 555.907C218.238 556.351 190.409 523.344 183.834 512.243C177.259 501.141 171.601 477.755 173.895 472.574C176.188 467.394 180.776 471.834 185.363 475.535C189.95 479.235 232 506.322 235.823 508.098C239.646 509.874 242.398 510.762 242.398 510.762C242.398 510.762 276.803 478.939 295.152 454.516C313.501 430.094 315.03 398.566 321.911 386.725C328.792 374.884 338.731 369.703 353.716 371.183C368.701 372.664 399.589 380.508 424.819 398.566Z" fill="white"/>
<path d="M263.043 527.637C252.798 534.741 243.929 540.958 241.33 542.882C235.214 547.323 223.745 555.463 220.993 555.907C220.076 556.055 215.947 551.911 210.748 546.138L254.48 518.904L263.043 527.637Z" fill="#18191E"/>
<path opacity="0.5" d="M263.043 527.637C252.798 534.741 243.929 540.958 241.33 542.882C235.214 547.323 223.745 555.463 220.993 555.907C220.076 556.055 215.947 551.911 210.748 546.138L254.48 518.904L263.043 527.637Z" fill="white"/>
<path d="M424.819 398.566C424.819 398.566 437.051 405.227 441.333 412.628C445.614 420.029 427.418 432.314 408.304 431.574C389.191 430.834 354.175 410.704 354.175 410.704C354.175 410.704 353.716 443.267 347.294 455.109C340.871 466.95 311.054 495.813 299.127 503.214C287.2 510.614 247.444 538.441 241.328 542.882C235.211 547.322 223.743 555.463 220.991 555.907C218.238 556.351 190.409 523.344 183.834 512.243C177.259 501.141 171.601 477.755 173.895 472.574C176.188 467.394 180.776 471.834 185.363 475.535C189.95 479.235 232 506.322 235.823 508.098C239.646 509.874 242.398 510.763 242.398 510.763C242.398 510.763 276.803 478.939 295.152 454.516C313.501 430.094 315.03 398.566 321.911 386.725C328.792 374.884 338.731 369.703 353.716 371.183C368.701 372.664 399.589 380.508 424.819 398.566Z" stroke="#2F2F2F" stroke-miterlimit="10" stroke-linecap="round" stroke-linejoin="round"/>
<path d="M244.843 508.543C252.947 500.846 283.223 461.473 295.15 438.827C312.734 405.671 314.569 394.274 321.45 382.433C328.331 370.592 338.729 369.704 353.561 371.184C368.393 372.664 395.152 375.328 427.875 393.238C427.875 393.238 441.637 400.491 445.765 407.892C449.894 415.293 434.603 433.943 407.997 431.574C388.883 429.946 353.867 410.704 353.867 410.704C353.867 410.704 353.408 443.268 346.986 455.109C340.564 466.95 310.747 495.813 298.82 503.214C291.327 507.95 272.519 520.828 258.299 530.745C254.935 518.46 248.666 511.651 244.843 508.543Z" fill="#2F2F2F"/>
<path opacity="0.53" d="M244.843 508.543C252.947 500.846 283.223 461.473 295.15 438.827C312.734 405.671 314.569 394.274 321.45 382.433C328.331 370.592 338.729 369.704 353.561 371.184C368.393 372.664 395.152 375.328 427.875 393.238C427.875 393.238 441.637 400.491 445.765 407.892C449.894 415.293 434.603 433.943 407.997 431.574C388.883 429.946 353.867 410.704 353.867 410.704C353.867 410.704 353.408 443.268 346.986 455.109C340.564 466.95 310.747 495.813 298.82 503.214C291.327 507.95 272.519 520.828 258.299 530.745C254.935 518.46 248.666 511.651 244.843 508.543Z" fill="white"/>
<path opacity="0.14" d="M321.756 455.849C333.225 427.726 326.344 371.48 358.455 378.88C381.85 384.209 424.664 403.451 446.224 413.368C443.625 421.805 429.557 433.498 408.303 431.574C389.189 429.946 354.173 410.704 354.173 410.704C354.173 410.704 353.714 443.267 347.292 455.109C340.87 466.95 311.053 495.813 299.126 503.214C291.633 507.95 272.826 520.828 258.605 530.745C257.229 525.712 255.241 521.716 253.253 518.311C281.694 498.033 315.334 471.538 321.756 455.849Z" fill="black"/>
<path d="M354.174 410.852L355.244 391.61" stroke="#2F2F2F" stroke-miterlimit="10" stroke-linecap="round" stroke-linejoin="round"/>
<path d="M244.843 508.543C252.947 500.846 283.223 461.473 295.15 438.827C312.734 405.671 314.569 394.274 321.45 382.433C328.331 370.592 338.729 369.704 353.561 371.184C368.393 372.664 395.152 375.328 427.875 393.238C427.875 393.238 441.637 400.491 445.765 407.892C449.894 415.293 434.603 433.943 407.997 431.574C388.883 429.946 353.867 410.704 353.867 410.704C353.867 410.704 353.408 443.267 346.986 455.109C340.564 466.95 310.747 495.813 298.82 503.214C291.327 507.95 272.519 520.828 258.299 530.745C254.935 518.46 248.666 511.651 244.843 508.543Z" stroke="#2F2F2F" stroke-miterlimit="10" stroke-linecap="round" stroke-linejoin="round"/>
<path d="M241.327 542.883C235.211 547.323 223.743 555.464 220.99 555.908C218.238 556.352 190.408 523.345 183.833 512.243C177.258 501.142 171.601 477.756 173.894 472.575C176.188 467.394 180.775 471.835 185.362 475.535C189.95 479.236 232 506.323 235.822 508.099C236.893 508.543 237.81 508.987 238.575 509.283C239.645 511.355 241.021 514.464 240.104 516.536C238.575 519.94 232 524.381 232 524.381L243.621 541.106C242.703 541.995 241.939 542.587 241.327 542.883Z" fill="#2F2F2F" stroke="#2F2F2F" stroke-miterlimit="10" stroke-linecap="round" stroke-linejoin="round"/>
<path d="M183.989 512.244C177.414 501.143 171.756 477.756 174.05 472.576C175.426 469.615 177.414 469.763 179.86 471.243C178.178 478.2 179.86 491.522 187.812 505.879C194.845 518.756 216.559 541.403 227.568 552.356C224.663 554.28 222.063 555.612 220.993 555.76C218.393 556.204 190.564 523.345 183.989 512.244Z" fill="white"/>
<path d="M220.685 555.76C220.532 555.76 220.532 555.612 220.379 555.612C220.379 555.612 220.379 555.612 220.226 555.612C220.073 555.464 219.92 555.464 219.767 555.316L219.614 555.168C219.462 555.02 219.309 554.872 219.156 554.872C219.003 554.872 219.003 554.724 218.85 554.724C218.697 554.576 218.391 554.428 218.238 554.132C218.085 553.984 217.932 553.836 217.932 553.836C217.78 553.688 217.627 553.54 217.474 553.392C217.321 553.244 217.168 553.096 217.015 552.948C216.862 552.8 216.709 552.652 216.556 552.504C216.25 552.208 215.792 551.764 215.486 551.468L215.333 551.32C215.18 551.024 214.874 550.876 214.721 550.579C214.568 550.431 214.568 550.431 214.416 550.283C213.651 549.395 212.734 548.507 211.816 547.619C211.816 547.619 211.816 547.619 211.816 547.471C211.51 547.175 211.204 546.731 210.899 546.435L217.627 542.291C221.449 546.287 224.966 549.839 227.719 552.652C227.413 552.948 226.954 553.096 226.648 553.244C226.648 553.244 226.495 553.244 226.495 553.392C226.19 553.54 225.884 553.836 225.578 553.984C225.119 554.28 224.508 554.576 224.049 554.872C223.896 555.02 223.743 555.02 223.59 555.168C223.437 555.316 223.284 555.316 223.131 555.316C222.978 555.464 222.826 555.464 222.673 555.612C222.52 555.612 222.52 555.76 222.367 555.76C222.214 555.76 222.061 555.908 221.908 555.908C221.755 555.908 221.755 555.908 221.602 556.056C221.449 556.056 221.144 556.204 220.991 556.204C220.991 555.908 220.991 555.908 220.685 555.76C220.838 555.76 220.685 555.76 220.685 555.76Z" fill="#18191E"/>
<path opacity="0.5" d="M220.685 555.76C220.532 555.76 220.532 555.612 220.379 555.612C220.379 555.612 220.379 555.612 220.226 555.612C220.073 555.464 219.92 555.464 219.767 555.316L219.614 555.168C219.462 555.02 219.309 554.872 219.156 554.872C219.003 554.872 219.003 554.724 218.85 554.724C218.697 554.576 218.391 554.428 218.238 554.132C218.085 553.984 217.932 553.836 217.932 553.836C217.78 553.688 217.627 553.54 217.474 553.392C217.321 553.244 217.168 553.096 217.015 552.948C216.862 552.8 216.709 552.652 216.556 552.504C216.25 552.208 215.792 551.764 215.486 551.468L215.333 551.32C215.18 551.024 214.874 550.876 214.721 550.579C214.568 550.431 214.568 550.431 214.416 550.283C213.651 549.395 212.734 548.507 211.816 547.619C211.816 547.619 211.816 547.619 211.816 547.471C211.51 547.175 211.204 546.731 210.899 546.435L217.627 542.291C221.449 546.287 224.966 549.839 227.719 552.652C227.413 552.948 226.954 553.096 226.648 553.244C226.648 553.244 226.495 553.244 226.495 553.392C226.19 553.54 225.884 553.836 225.578 553.984C225.119 554.28 224.508 554.576 224.049 554.872C223.896 555.02 223.743 555.02 223.59 555.168C223.437 555.316 223.284 555.316 223.131 555.316C222.978 555.464 222.826 555.464 222.673 555.612C222.52 555.612 222.52 555.76 222.367 555.76C222.214 555.76 222.061 555.908 221.908 555.908C221.755 555.908 221.755 555.908 221.602 556.056C221.449 556.056 221.144 556.204 220.991 556.204C220.991 555.908 220.991 555.908 220.685 555.76C220.838 555.76 220.685 555.76 220.685 555.76Z" fill="white"/>
<path d="M183.989 512.244C177.414 501.143 171.756 477.756 174.05 472.576C175.426 469.615 177.414 469.763 179.86 471.243C178.178 478.2 179.86 491.522 187.812 505.879C194.845 518.756 216.559 541.403 227.568 552.356C224.663 554.28 222.063 555.612 220.993 555.76C218.393 556.204 190.564 523.345 183.989 512.244Z" stroke="#2F2F2F" stroke-miterlimit="10" stroke-linecap="round" stroke-linejoin="round"/>
<path d="M244.846 564.344C256.315 557.239 269.312 537.701 269.771 531.04C269.771 530.448 269.77 529.708 269.618 528.82C273.287 528.82 275.887 531.04 275.887 531.04C275.887 531.04 284.297 523.639 290.872 519.495C295.459 516.535 301.576 515.795 304.634 515.498C310.139 519.939 315.337 523.491 316.102 526.452C317.631 532.076 307.233 554.279 282.462 569.82C257.691 585.362 249.128 582.846 241.941 581.365C234.754 579.885 233.378 571.448 244.846 564.344Z" fill="#2F2F2F" stroke="#2F2F2F" stroke-miterlimit="10" stroke-linecap="round" stroke-linejoin="round"/>
<path d="M244.846 564.345C248.21 562.273 251.727 559.017 255.091 555.464C263.042 552.208 273.44 548.064 282.768 542.439C292.707 536.518 290.413 532.818 296.224 527.194C300.658 522.901 309.221 522.309 313.044 522.309C314.573 523.789 315.643 525.121 316.102 526.453C317.631 532.078 307.233 554.28 282.462 569.822C257.691 585.363 249.128 582.847 241.941 581.367C234.754 579.887 233.378 571.45 244.846 564.345Z" fill="white"/>
<path d="M244.846 564.345C248.21 562.273 251.727 559.017 255.091 555.464C263.042 552.208 273.44 548.064 282.768 542.439C292.707 536.518 290.413 532.818 296.224 527.194C300.658 522.901 309.221 522.309 313.044 522.309C314.573 523.789 315.643 525.121 316.102 526.453C317.631 532.078 307.233 554.28 282.462 569.822C257.691 585.363 249.128 582.847 241.941 581.367C234.754 579.887 233.378 571.45 244.846 564.345Z" fill="#18191E"/>
<path opacity="0.5" d="M244.846 564.345C248.21 562.273 251.727 559.017 255.091 555.464C263.042 552.208 273.44 548.064 282.768 542.439C292.707 536.518 290.413 532.818 296.224 527.194C300.658 522.901 309.221 522.309 313.044 522.309C314.573 523.789 315.643 525.121 316.102 526.453C317.631 532.078 307.233 554.28 282.462 569.822C257.691 585.363 249.128 582.847 241.941 581.367C234.754 579.887 233.378 571.45 244.846 564.345Z" fill="white"/>
<path d="M244.846 564.345C248.21 562.273 251.727 559.017 255.091 555.464C263.042 552.208 273.44 548.064 282.768 542.439C292.707 536.518 290.413 532.818 296.224 527.194C300.658 522.901 309.221 522.309 313.044 522.309C314.573 523.789 315.643 525.121 316.102 526.453C317.631 532.078 307.233 554.28 282.462 569.822C257.691 585.363 249.128 582.847 241.941 581.367C234.754 579.887 233.378 571.45 244.846 564.345Z" stroke="#2F2F2F" stroke-miterlimit="10" stroke-linecap="round" stroke-linejoin="round"/>
<path d="M242.858 567.009C252.797 561.384 273.134 557.684 286.131 549.247C299.128 540.81 295.764 533.261 305.245 527.34C309.679 524.676 313.349 525.268 315.948 526.748C317.324 532.521 306.927 554.427 282.308 569.969C257.384 585.511 248.974 582.995 241.787 581.514C236.894 580.478 234.906 576.482 237.353 571.745C238.882 569.821 240.717 568.193 242.858 567.009Z" fill="#2F2F2F"/>
<path opacity="0.53" d="M242.858 567.009C252.797 561.384 273.134 557.684 286.131 549.247C299.128 540.81 295.764 533.261 305.245 527.34C309.679 524.676 313.349 525.268 315.948 526.748C317.324 532.521 306.927 554.427 282.308 569.969C257.384 585.511 248.974 582.995 241.787 581.514C236.894 580.478 234.906 576.482 237.353 571.745C238.882 569.821 240.717 568.193 242.858 567.009Z" fill="white"/>
<path d="M242.858 567.009C252.797 561.384 273.134 557.684 286.131 549.247C299.128 540.81 295.764 533.261 305.245 527.34C309.679 524.676 313.349 525.268 315.948 526.748C317.324 532.521 306.927 554.427 282.308 569.969C257.384 585.511 248.974 582.995 241.787 581.514C236.894 580.478 234.906 576.482 237.353 571.745C238.882 569.821 240.717 568.193 242.858 567.009Z" stroke="#2F2F2F" stroke-miterlimit="10" stroke-linecap="round" stroke-linejoin="round"/>
<path d="M433.384 496.11C433.384 496.11 426.044 487.525 424.974 494.038C423.904 500.699 425.433 512.836 430.785 517.425C435.984 522.013 438.583 514.908 438.583 514.908L435.372 510.912C435.372 510.912 432.772 515.944 430.632 507.803C428.491 499.662 434.76 500.699 434.76 500.699L433.384 496.11Z" fill="white" stroke="#2F2F2F" stroke-miterlimit="10" stroke-linecap="round" stroke-linejoin="round"/>
<path d="M439.04 528.673C443.322 531.781 457.542 531.781 461.824 528.673C470.998 522.16 469.469 490.336 469.469 490.336H431.395C431.395 490.188 429.866 522.012 439.04 528.673Z" fill="white" stroke="#2F2F2F" stroke-miterlimit="10" stroke-linecap="round" stroke-linejoin="round"/>
<path d="M450.508 491.818C440.037 491.818 431.548 491.089 431.548 490.19C431.548 489.29 440.037 488.561 450.508 488.561C460.98 488.561 469.469 489.29 469.469 490.19C469.469 491.089 460.98 491.818 450.508 491.818Z" fill="white" stroke="#2F2F2F" stroke-miterlimit="10" stroke-linecap="round" stroke-linejoin="round"/>
<path d="M396.378 261.208C396.378 261.208 394.544 279.858 393.779 285.778C393.014 291.699 391.332 308.573 389.498 314.197C387.663 319.822 378.182 329.591 377.265 327.371C376.347 325.151 371.607 309.905 373.442 300.876C375.277 291.847 375.889 284.002 374.665 281.634C373.442 279.266 369.314 276.749 369.314 276.749C369.314 276.749 376.806 273.049 383.687 268.608C390.568 264.168 395.461 259.283 396.378 261.208Z" fill="white"/>
<path d="M371.758 277.639L373.287 274.827C376.04 273.347 380.015 271.126 383.685 268.758C390.566 264.318 395.306 259.285 396.224 261.357C396.224 261.357 394.389 280.007 393.624 285.928C392.86 291.849 391.178 308.722 389.343 314.347C388.884 315.679 387.967 317.307 386.896 318.935C388.731 307.834 386.743 287.556 386.743 287.556L371.758 277.639Z" fill="#18191E"/>
<path opacity="0.5" d="M371.758 277.639L373.287 274.827C376.04 273.347 380.015 271.126 383.685 268.758C390.566 264.318 395.306 259.285 396.224 261.357C396.224 261.357 394.389 280.007 393.624 285.928C392.86 291.849 391.178 308.722 389.343 314.347C388.884 315.679 387.967 317.307 386.896 318.935C388.731 307.834 386.743 287.556 386.743 287.556L371.758 277.639Z" fill="white"/>
<path d="M396.378 261.208C396.378 261.208 394.544 279.858 393.779 285.778C393.014 291.699 391.332 308.573 389.498 314.197C387.663 319.822 378.182 329.591 377.265 327.371C376.347 325.151 371.607 309.905 373.442 300.876C375.277 291.847 375.889 284.002 374.665 281.634C373.442 279.266 369.314 276.749 369.314 276.749C369.314 276.749 376.806 273.049 383.687 268.608C390.568 264.168 395.461 259.283 396.378 261.208Z" stroke="#2F2F2F" stroke-miterlimit="10" stroke-linecap="round" stroke-linejoin="round"/>
<path d="M396.988 263.872C396.988 263.872 385.979 272.753 377.569 276.01C369.159 279.266 356.162 279.118 354.327 274.826C352.492 270.533 357.538 236.934 361.819 228.053C366.101 219.172 370.841 219.024 378.486 218.432C386.132 217.692 401.576 223.76 404.328 231.013C407.08 238.266 404.022 248.331 401.729 254.4C399.588 260.468 396.988 263.872 396.988 263.872Z" fill="white"/>
<path d="M377.265 263.577C381.24 252.327 382.158 234.713 382.158 230.125C382.158 226.425 372.371 222.576 367.937 220.948C370.842 219.172 374.206 219.024 378.641 218.58C386.286 217.84 401.73 223.908 404.482 231.161C407.235 238.414 404.177 248.479 401.883 254.548C399.589 260.616 397.143 264.021 397.143 264.021C397.143 264.021 386.133 272.902 377.723 276.158C372.066 278.23 364.42 278.97 359.527 277.934C365.338 275.566 374.665 270.977 377.265 263.577Z" fill="#18191E"/>
<path opacity="0.5" d="M377.265 263.577C381.24 252.327 382.158 234.713 382.158 230.125C382.158 226.425 372.371 222.576 367.937 220.948C370.842 219.172 374.206 219.024 378.641 218.58C386.286 217.84 401.73 223.908 404.482 231.161C407.235 238.414 404.177 248.479 401.883 254.548C399.589 260.616 397.143 264.021 397.143 264.021C397.143 264.021 386.133 272.902 377.723 276.158C372.066 278.23 364.42 278.97 359.527 277.934C365.338 275.566 374.665 270.977 377.265 263.577Z" fill="white"/>
<path d="M396.988 263.872C396.988 263.872 385.979 272.753 377.569 276.01C369.159 279.266 356.162 279.118 354.327 274.826C352.492 270.533 357.538 236.934 361.819 228.053C366.101 219.172 370.841 219.024 378.486 218.432C386.132 217.692 401.576 223.76 404.328 231.013C407.08 238.266 404.022 248.331 401.729 254.4C399.588 260.468 396.988 263.872 396.988 263.872Z" stroke="#2F2F2F" stroke-miterlimit="10" stroke-linecap="round" stroke-linejoin="round"/>
<path d="M367.332 249.8C363.788 249.665 361.055 246.112 361.228 241.865C361.401 237.617 364.414 234.283 367.958 234.418C371.502 234.554 374.235 238.106 374.062 242.354C373.889 246.601 370.876 249.935 367.332 249.8Z" stroke="#2F2F2F" stroke-miterlimit="10" stroke-linecap="round" stroke-linejoin="round"/>
<path d="M355.553 248.166C353.612 248.092 352.178 244.588 352.351 240.341C352.524 236.094 354.237 232.71 356.178 232.784C358.119 232.858 359.552 236.361 359.379 240.609C359.207 244.856 357.493 248.239 355.553 248.166Z" stroke="#2F2F2F" stroke-miterlimit="10" stroke-linecap="round" stroke-linejoin="round"/>
<path d="M360.599 240.338C360.599 240.338 347.908 242.706 349.131 245.666C350.355 248.626 358.917 251.735 358.917 251.735" fill="white"/>
<path d="M360.599 240.338C360.599 240.338 347.908 242.706 349.131 245.666C350.355 248.626 358.917 251.735 358.917 251.735" stroke="#2F2F2F" stroke-miterlimit="10" stroke-linecap="round" stroke-linejoin="round"/>
<path d="M361.364 239.006C361.364 239.006 361.211 237.525 359.223 238.414" stroke="#2F2F2F" stroke-miterlimit="10" stroke-linecap="round" stroke-linejoin="round"/>
<path d="M374.361 243.15L397.297 251.883" stroke="#2F2F2F" stroke-miterlimit="10" stroke-linecap="round" stroke-linejoin="round"/>
<path d="M374.055 235.898C374.055 235.898 372.679 232.346 368.398 232.494" stroke="#2F2F2F" stroke-width="2" stroke-miterlimit="10" stroke-linecap="round" stroke-linejoin="round"/>
<path d="M358.765 232.641L362.282 233.973" stroke="#2F2F2F" stroke-width="2" stroke-miterlimit="10" stroke-linecap="round" stroke-linejoin="round"/>
<path d="M369.772 257.508C369.772 257.508 365.185 256.324 362.585 258.988" stroke="#2F2F2F" stroke-miterlimit="10" stroke-linecap="round" stroke-linejoin="round"/>
<path d="M367.411 245.511C366.825 245.433 366.517 244.188 366.723 242.73C366.929 241.273 367.571 240.154 368.157 240.231C368.743 240.309 369.05 241.553 368.844 243.011C368.638 244.469 367.997 245.588 367.411 245.511Z" fill="#2F2F2F"/>
<path d="M395.159 251.882C395.159 251.882 396.688 254.842 392.407 254.99C388.125 255.139 385.22 253.066 387.208 250.55C389.348 248.034 392.407 245.665 389.196 242.261C385.984 238.857 379.868 236.044 383.232 232.344C386.749 228.644 399.593 232.048 396.382 228.94C393.171 225.979 378.339 222.723 371.611 223.167C364.883 223.611 352.497 218.578 349.745 212.066C346.993 205.553 350.815 193.416 359.837 194.156C368.859 194.748 375.434 202.445 379.409 202.889C383.385 203.333 391.489 199.188 398.37 203.037C405.251 206.885 405.404 217.542 406.016 218.726C406.627 220.059 415.802 221.983 417.484 231.012C419.166 240.041 414.884 247.294 411.062 251.438C407.239 255.435 405.557 257.063 405.557 257.063L395.159 251.882Z" fill="#2F2F2F" stroke="#2F2F2F" stroke-miterlimit="10" stroke-linecap="round" stroke-linejoin="round"/>
<path d="M414.73 235.6C414.883 237.82 413.813 239.597 413.813 239.597" stroke="white" stroke-width="0.75" stroke-miterlimit="10" stroke-linecap="round" stroke-linejoin="round"/>
<path d="M375.738 212.066C375.738 212.066 379.102 204.961 370.539 204.961C361.976 204.961 360.753 215.322 369.622 219.023C378.49 222.871 397.604 223.759 407.849 228.2C410.448 229.236 412.13 230.568 413.048 231.752" stroke="white" stroke-width="0.75" stroke-miterlimit="10" stroke-linecap="round" stroke-linejoin="round"/>
<path d="M391.027 237.229C394.086 238.265 398.061 239.746 402.037 241.522C410.6 245.37 408.765 249.218 408.765 249.218" stroke="white" stroke-width="0.75" stroke-miterlimit="10" stroke-linecap="round" stroke-linejoin="round"/>
<path d="M385.372 235.304C385.372 235.304 386.136 235.452 387.359 235.896" stroke="white" stroke-width="0.75" stroke-miterlimit="10" stroke-linecap="round" stroke-linejoin="round"/>
<path d="M393.779 255.139C393.779 255.139 398.672 248.182 403.871 250.994C409.07 253.807 405.094 263.576 401.883 266.98C398.825 270.385 392.709 264.02 392.097 262.392" fill="white"/>
<path d="M393.779 255.139C393.779 255.139 398.672 248.182 403.871 250.994C409.07 253.807 405.094 263.576 401.883 266.98C398.825 270.385 392.709 264.02 392.097 262.392" fill="#18191E"/>
<path opacity="0.5" d="M393.779 255.139C393.779 255.139 398.672 248.182 403.871 250.994C409.07 253.807 405.094 263.576 401.883 266.98C398.825 270.385 392.709 264.02 392.097 262.392" fill="white"/>
<path d="M393.779 255.139C393.779 255.139 398.672 248.182 403.871 250.994C409.07 253.807 405.094 263.576 401.883 266.98C398.825 270.385 392.709 264.02 392.097 262.392" stroke="#2F2F2F" stroke-miterlimit="10" stroke-linecap="round" stroke-linejoin="round"/>
<path d="M102.739 559.295C80.9301 559.295 63.2507 551.609 63.2507 542.128C63.2507 532.648 80.9301 524.962 102.739 524.962C124.547 524.962 142.227 532.648 142.227 542.128C142.227 551.609 124.547 559.295 102.739 559.295Z" fill="#05080D"/>
<path opacity="0.5" d="M102.739 559.295C80.9301 559.295 63.2507 551.609 63.2507 542.128C63.2507 532.648 80.9301 524.962 102.739 524.962C124.547 524.962 142.227 532.648 142.227 542.128C142.227 551.609 124.547 559.295 102.739 559.295Z" fill="white"/>
<path d="M149.083 288.062C144.827 289.893 134.423 289.664 134.423 289.664C134.423 289.664 136.551 283.026 136.788 282.797C139.152 278.22 146.246 270.666 152.157 271.353C156.414 271.811 158.778 275.931 157.832 279.822C156.886 283.484 152.63 286.459 149.083 288.062Z" fill="#2F2F2F"/>
<path d="M13.3587 253.958C19.2701 253.271 26.1274 261.053 28.2555 265.86C28.4919 266.318 30.62 272.956 30.3836 272.956C30.3836 272.956 30.3835 272.956 30.1471 272.956C31.3294 274.1 32.5116 275.473 33.6939 277.076C36.0585 279.822 38.6595 282.798 41.024 286.46C43.625 290.122 46.226 294.013 48.827 298.362C51.1916 302.711 53.5562 307.518 55.4478 312.782V313.011C55.4478 311.409 55.4478 306.602 55.4478 306.373C56.1572 301.338 60.4134 291.953 66.3248 290.809C70.581 290.122 74.1278 293.327 74.3642 297.218C74.6007 301.338 71.7632 305.229 68.6893 307.747C65.3789 310.493 56.1572 313.469 55.4478 313.698C57.103 318.733 58.2853 323.769 59.2311 329.262C59.704 332.238 60.1769 335.442 60.6498 338.418C60.6498 337.044 60.6498 335.671 60.6498 335.442C61.3591 330.407 65.6154 321.022 71.5267 319.878C75.7829 319.191 79.3297 322.395 79.5662 326.287C79.8027 330.407 76.9652 334.298 73.8913 336.815C70.8174 339.333 63.0144 341.851 61.1227 342.538C61.3592 343.682 61.3592 344.827 61.5957 346.2C62.305 351.922 63.0144 357.644 63.7237 363.138C63.9602 365.198 64.4331 367.029 64.6695 368.86C64.6695 367.487 64.6695 366.571 64.6695 366.342C65.3789 361.307 69.6351 351.922 75.5465 350.778C79.8027 350.091 83.3495 353.295 83.586 357.187C83.8224 361.307 80.985 365.198 77.911 367.715C75.0736 370.233 67.9799 372.522 65.3789 373.438C65.8518 375.498 66.3247 377.329 66.7976 379.16C67.2705 380.533 67.507 381.678 67.9799 383.051C68.4528 384.424 68.9257 385.569 69.1622 386.713C70.108 389.002 71.0538 391.52 71.7632 393.809C72.4726 395.411 72.9454 397.013 73.6548 398.386C73.4184 396.326 72.709 392.664 72.709 392.206C72.709 388.773 73.8913 383.28 76.2558 379.389C76.2558 378.931 76.2558 378.473 76.2558 377.787C76.9652 373.895 80.7485 370.92 84.7682 372.064C90.4432 373.438 93.99 383.28 94.4629 388.315C94.4629 388.544 94.2264 391.978 94.2264 394.038C94.4629 392.893 94.6993 391.749 95.1722 390.375C95.8816 387.858 96.3546 385.569 97.0639 382.822C97.5368 381.678 97.7733 380.304 98.2462 379.16C98.7191 377.787 99.192 376.642 99.6649 375.269C100.847 372.293 102.029 369.318 103.448 366.342C101.32 365.884 93.517 363.824 90.2067 361.535C87.1328 359.247 83.8224 355.355 83.8224 351.464C83.8224 347.573 87.1328 344.14 91.389 344.598C97.3003 345.284 102.266 354.211 103.448 359.247C103.448 359.475 103.921 363.138 103.921 365.198C104.867 363.367 105.576 361.535 106.522 359.933C109.123 354.898 111.961 349.633 114.798 344.598C115.744 342.995 116.453 341.393 117.399 340.02C116.69 339.791 107.231 337.731 103.685 335.213C100.611 332.924 97.3003 329.033 97.3003 325.142C97.3003 321.251 100.611 317.818 104.867 318.276C110.778 318.962 115.744 327.889 116.926 332.924C116.926 333.382 117.399 338.647 117.635 340.02C119.527 336.587 121.182 333.153 122.838 329.72C125.202 324.913 127.094 320.107 128.512 315.3C128.04 315.3 118.345 313.011 114.798 310.493C111.724 308.204 108.414 304.313 108.414 300.422C108.414 296.531 111.724 293.098 115.98 293.556C121.892 294.242 126.857 303.169 128.039 308.204C128.039 308.662 128.749 314.384 128.749 315.3C128.749 315.071 128.985 314.842 128.985 314.384C130.641 309.349 131.35 304.084 132.059 299.278C132.296 296.531 132.532 293.784 132.532 291.038C130.641 290.809 122.128 289.664 118.581 287.604C115.271 285.544 111.488 282.111 111.015 278.22C110.542 274.329 113.379 270.438 117.635 270.438C123.547 270.438 129.695 278.907 131.35 283.713C131.35 283.942 132.059 286.689 132.532 288.749C132.532 287.604 132.532 286.231 132.532 285.087C132.532 280.738 132.296 276.847 132.059 273.413C131.823 271.353 131.586 269.522 131.586 267.92C129.931 266.776 123.074 262.198 120.946 258.764C118.818 255.56 117.163 250.753 118.818 247.091C120.236 243.429 124.729 241.369 128.512 243.2C133.714 245.718 135.133 256.018 134.187 261.053C134.187 261.511 132.059 268.149 132.059 268.149C132.296 269.751 132.532 271.582 132.769 273.413C133.242 276.847 133.478 280.967 133.714 285.316C133.714 289.664 133.714 294.242 133.478 299.278C133.005 304.313 132.296 309.349 130.877 314.842V315.071C131.823 313.698 134.424 309.807 134.897 309.578C138.444 305.687 147.429 300.193 152.867 302.482C156.887 304.084 157.833 308.662 155.941 312.095C154.05 315.529 149.084 317.36 145.301 317.818C140.808 318.504 131.586 315.758 130.877 315.529C129.458 320.564 127.567 325.6 125.202 330.635C124.02 333.382 122.601 336.358 121.182 339.104C122.128 337.96 122.838 336.815 122.838 336.815C126.384 332.924 135.37 327.431 140.808 329.72C144.828 331.322 145.774 335.9 143.882 339.333C141.99 342.767 137.025 344.598 133.242 345.055C129.222 345.513 121.419 343.453 119.291 342.995C118.818 344.14 118.108 345.055 117.635 346.2C115.034 351.464 112.197 356.5 109.832 361.535C108.887 363.367 108.177 365.198 107.468 367.029C108.177 365.884 108.887 364.969 108.887 364.969C112.434 361.078 121.419 355.584 126.857 357.873C130.877 359.475 131.823 364.053 129.931 367.487C128.04 370.92 123.074 372.751 119.291 373.209C115.507 373.667 108.177 371.835 105.813 371.149C105.103 372.98 104.394 374.811 103.685 376.642C103.212 378.015 102.739 379.16 102.502 380.304C102.029 381.678 101.793 382.822 101.32 384.195C100.611 386.713 100.138 389.231 99.6649 391.52C99.192 393.122 98.9555 394.724 98.7191 396.327C99.6649 394.495 101.32 391.062 101.557 390.833C104.394 386.484 112.434 379.847 118.108 381.22C122.128 382.135 124.02 386.484 122.601 390.146C121.182 394.038 116.69 396.327 112.906 397.471C108.65 398.615 99.6649 397.471 98.4826 397.471C98.0097 400.218 97.5368 402.735 97.0639 405.253C95.4087 413.722 94.4629 420.818 93.99 425.853C93.99 426.769 93.7535 427.455 93.7535 428.371H111.488L105.813 536.177C105.34 544.417 98.4827 550.826 89.9703 550.826C81.4579 550.826 74.6007 544.417 74.1278 536.177L68.4528 428.371H85.0047C84.7682 428.142 84.7682 427.913 84.5318 427.684C82.1672 423.106 79.0933 416.469 75.783 408.458C74.6007 405.94 73.6548 403.193 72.4725 400.446C71.2903 400.675 62.305 402.506 58.0488 401.591C54.2655 400.675 49.5364 398.615 47.8812 394.953C46.226 391.291 47.6448 386.942 51.6645 385.569C57.3394 383.738 65.8518 389.918 68.9257 394.038C69.1622 394.267 70.8174 397.013 71.7632 398.844C71.2903 397.7 70.8174 396.555 70.3445 395.411C69.3986 393.122 68.6893 390.604 67.7434 388.087C67.2705 386.942 67.0341 385.569 66.5612 384.195C66.0882 383.051 65.8518 381.678 65.6154 380.304C64.906 377.1 64.1966 374.124 63.7237 370.92C61.5956 371.607 54.029 374.124 50.0093 373.895C45.9896 373.667 41.2605 372.293 38.896 368.86C36.7679 365.655 37.4772 360.849 41.2605 359.018C46.4625 356.5 55.9207 361.307 59.704 364.74C59.9404 364.969 62.305 367.944 63.4873 369.547C63.2508 367.715 62.7779 365.655 62.5415 363.824C61.8321 358.102 61.3591 352.38 60.6498 346.658C60.4133 344.827 60.1769 343.224 60.1769 341.393C59.4675 341.622 50.4823 344.827 45.9896 344.598C41.9699 344.369 37.2407 342.995 34.8762 339.562C32.7481 336.358 33.4575 331.551 37.2407 329.72C42.4427 327.202 51.901 332.009 55.6843 335.442C55.9207 335.671 59.4675 339.791 60.1769 340.935C59.704 337.044 59.2311 333.153 58.7582 329.491C57.8123 324.227 56.8665 319.191 55.4478 314.384C55.2114 314.613 45.7532 317.818 41.2605 317.589C37.2408 317.36 32.5116 315.987 30.1471 312.553C28.019 309.349 28.7283 304.542 32.5116 302.711C37.7136 300.193 47.1719 305 50.9552 308.433C51.1916 308.662 54.9749 313.24 55.4478 313.927C55.4478 313.698 55.2113 313.24 55.2113 313.011C53.5562 307.976 51.428 303.169 49.0635 298.82C47.6448 296.302 46.2261 294.013 44.8073 291.724C43.1521 292.64 35.3491 296.073 31.3294 296.302C27.3096 296.531 22.3441 295.616 19.7431 292.411C17.1421 289.436 17.3785 284.629 20.9253 282.34C25.8909 279.136 35.822 283.027 39.8418 286.231C40.0782 286.46 42.2063 288.291 43.6251 289.893C42.9157 288.978 42.2063 287.833 41.7334 286.918C39.3688 283.256 36.7678 280.28 34.6397 277.304C33.4574 275.702 32.2752 274.329 31.0929 272.956C28.9648 272.956 20.6889 272.727 17.142 271.124C13.5952 269.522 9.57547 266.547 8.62965 262.656C6.73801 258.307 9.339 254.416 13.3587 253.958ZM78.3839 406.398C81.9307 414.409 85.2412 420.818 87.6057 425.166C88.0786 426.082 88.5515 426.769 88.788 427.684H89.2609C89.2609 426.769 89.4974 425.853 89.7338 424.709C90.4432 419.673 91.6255 412.578 93.2806 403.88C93.7535 401.133 94.4629 398.387 95.1722 395.411C94.4629 395.182 90.6796 393.58 87.1328 391.749C84.0589 394.953 76.4923 398.615 75.31 399.073C76.2559 401.82 77.4381 404.109 78.3839 406.398Z" fill="#2F2F2F"/>
<path d="M44.3306 290.123C44.3306 290.123 42.439 283.485 42.439 283.027C41.7296 277.992 43.3848 267.692 48.5868 265.403C52.37 263.572 56.6262 265.861 58.0449 269.523C59.4637 273.414 57.572 277.992 55.4439 281.196C53.0794 284.858 44.3306 290.123 44.3306 290.123Z" fill="#2F2F2F"/>
</svg>
